<svg preserveAspectRatio="none" width="100%" height="100%" overflow="visible" style="display: block;" viewBox="0 0 33.1543 73.2653" fill="none" xmlns="http://www.w3.org/2000/svg">
<path id="Ellipse 26" d="M14.5944 72.6822C13.8134 73.4633 12.5434 73.4662 11.7978 72.6512C7.06068 67.4731 3.59376 61.2512 1.68582 54.4783C-0.403138 47.0629 -0.553299 39.2353 1.24972 31.7451C3.05274 24.255 6.74855 17.3532 11.9832 11.7006C16.7643 6.5379 22.6828 2.57524 29.2574 0.120117C30.2922 -0.266296 31.4217 0.314228 31.7618 1.36515L33.0567 5.36692C33.3967 6.41784 32.818 7.54028 31.7871 7.93693C26.5478 9.95283 21.8304 13.1446 18.0041 17.2764C13.724 21.8981 10.7021 27.5413 9.22788 33.6656C7.75366 39.7899 7.87644 46.1901 9.58446 52.2533C11.1114 57.6737 13.8596 62.6626 17.6076 66.8419C18.3451 67.6642 18.3496 68.927 17.5685 69.7081L14.5944 72.6822Z" fill="var(--fill-0, #D9D9D9)"/>
</svg>
