<svg preserveAspectRatio="none" width="100%" height="100%" overflow="visible" style="display: block;" viewBox="0 0 48 48" fill="none" xmlns="http://www.w3.org/2000/svg">
<g id="lucide/goal">
<path id="Vector" d="M23.9994 26.002V4.00195L39.9994 12.002L23.9994 20.002M41.1214 20.446C42.1857 23.7262 42.2852 27.2432 41.4083 30.5785C40.5313 33.9137 38.7146 36.9268 36.1745 39.2593C33.6343 41.5918 30.4776 43.1455 27.0798 43.7356C23.6821 44.3257 20.1863 43.9273 17.0085 42.5877C13.8306 41.2482 11.1045 39.024 9.15434 36.1798C7.2042 33.3355 6.11217 29.9909 6.00819 26.5438C5.9042 23.0968 6.79263 19.6924 8.56777 16.7357C10.3429 13.7791 12.93 11.3946 16.0214 9.86595M16.0034 19.996C15.0012 21.33 14.3487 22.8936 14.1054 24.5443C13.8622 26.1951 14.0358 27.8804 14.6106 29.4469C15.1853 31.0133 16.1429 32.411 17.396 33.5127C18.6492 34.6144 20.1581 35.385 21.7852 35.7543C23.4124 36.1236 25.1061 36.0799 26.7121 35.6271C28.318 35.1744 29.7851 34.327 30.9798 33.1621C32.1744 31.9973 33.0586 30.552 33.5518 28.958C34.045 27.364 34.1315 25.6719 33.8034 24.036" stroke="var(--stroke-0, #727D83)" stroke-width="2" stroke-linecap="round" stroke-linejoin="round"/>
</g>
</svg>
