<svg preserveAspectRatio="none" width="100%" height="100%" overflow="visible" style="display: block;" viewBox="0 0 13.7143 13.7143" fill="none" xmlns="http://www.w3.org/2000/svg">
<g id="lucide/user-round-plus">
<path id="Vector" d="M1.14281 11.9996C1.14276 11.1198 1.3966 10.2587 1.87387 9.51956C2.35113 8.78045 3.03154 8.19476 3.83344 7.83278C4.63534 7.4708 5.52466 7.34792 6.39467 7.47887C7.26469 7.60983 8.07843 7.98906 8.73824 8.57106M10.8571 9.14249V12.5711M12.5714 10.8568H9.14281M8.57138 4.57106C8.57138 6.14901 7.2922 7.4282 5.71424 7.4282C4.13628 7.4282 2.8571 6.14901 2.8571 4.57106C2.8571 2.9931 4.13628 1.71391 5.71424 1.71391C7.2922 1.71391 8.57138 2.9931 8.57138 4.57106Z" stroke="var(--stroke-0, #606D76)" stroke-width="0.857143" stroke-linecap="round" stroke-linejoin="round"/>
</g>
</svg>
