<svg preserveAspectRatio="none" width="100%" height="100%" overflow="visible" style="display: block;" viewBox="0 0 27.3222 60.3775" fill="none" xmlns="http://www.w3.org/2000/svg">
<path id="Ellipse 26" d="M12.0272 59.897C11.3835 60.5407 10.3369 60.5431 9.72251 59.8715C5.81867 55.6043 2.9616 50.4768 1.38928 44.8953C-0.332224 38.7843 -0.455971 32.3336 1.02989 26.161C2.51574 19.9884 5.56144 14.3006 9.87531 9.64241C13.8154 5.38784 18.6928 2.12224 24.1109 0.0989876C24.9636 -0.219453 25.8945 0.258954 26.1747 1.12501L27.2418 4.42285C27.5221 5.28891 27.0452 6.2139 26.1956 6.54078C21.8779 8.20207 17.9903 10.8324 14.837 14.2374C11.3098 18.0461 8.81955 22.6967 7.60465 27.7436C6.38975 32.7906 6.49093 38.065 7.8985 43.0616C9.15686 47.5286 11.4216 51.6399 14.5103 55.084C15.1181 55.7617 15.1218 56.8024 14.4781 57.4461L12.0272 59.897Z" fill="var(--fill-0, #1ED760)"/>
</svg>
