<svg preserveAspectRatio="none" width="100%" height="100%" overflow="visible" style="display: block;" viewBox="0 0 18.6667 18.6667" fill="none" xmlns="http://www.w3.org/2000/svg">
<path id="Ellipse 26" d="M17.3333 9.33333C17.3333 10.3839 17.1264 11.4242 16.7244 12.3948C16.3223 13.3654 15.7331 14.2473 14.9902 14.9902C14.2473 15.7331 13.3654 16.3223 12.3948 16.7244C11.4242 17.1264 10.3839 17.3333 9.33333 17.3333C8.28276 17.3333 7.24247 17.1264 6.27187 16.7244C5.30126 16.3223 4.41935 15.7331 3.67648 14.9902C2.93361 14.2473 2.34433 13.3654 1.9423 12.3948C1.54026 11.4242 1.33333 10.3839 1.33333 9.33333C1.33333 8.28276 1.54026 7.24247 1.9423 6.27186C2.34433 5.30126 2.93361 4.41935 3.67648 3.67648C4.41935 2.93361 5.30126 2.34433 6.27187 1.9423C7.24247 1.54026 8.28276 1.33333 9.33333 1.33333C10.3839 1.33333 11.4242 1.54026 12.3948 1.9423C13.3654 2.34434 14.2473 2.93361 14.9902 3.67648C15.7331 4.41935 16.3223 5.30126 16.7244 6.27187C17.1264 7.24247 17.3333 8.28276 17.3333 9.33333L17.3333 9.33333Z" stroke="var(--stroke-0, #DCE3E5)" stroke-opacity="0.68" stroke-width="2.66667"/>
</svg>
