<svg preserveAspectRatio="none" width="100%" height="100%" overflow="visible" style="display: block;" viewBox="0 0 16 16" fill="none" xmlns="http://www.w3.org/2000/svg">
<g id="lucide/user-round-plus">
<path id="Vector" d="M1.33438 14C1.33432 12.9736 1.63046 11.9689 2.18727 11.1066C2.74408 10.2443 3.53789 9.56098 4.47344 9.13868C5.40899 8.71637 6.44653 8.573 7.46155 8.72578C8.47656 8.87857 9.42593 9.321 10.1957 10M12.6677 10.6667V14.6667M14.6677 12.6667H10.6677M10.001 5.33333C10.001 7.17428 8.50866 8.66667 6.66771 8.66667C4.82676 8.66667 3.33437 7.17428 3.33437 5.33333C3.33437 3.49238 4.82676 2 6.66771 2C8.50866 2 10.001 3.49238 10.001 5.33333Z" stroke="var(--stroke-0, #0B191F)" stroke-linecap="round" stroke-linejoin="round"/>
</g>
</svg>
