<svg preserveAspectRatio="none" width="100%" height="100%" overflow="visible" style="display: block;" viewBox="0 0 13 13" fill="none" xmlns="http://www.w3.org/2000/svg">
<path id="Vector" d="M8 10.25H1.25M8 10.25C8 11.4926 9.00736 12.5 10.25 12.5C11.4926 12.5 12.5 11.4926 12.5 10.25C12.5 9.00736 11.4926 8 10.25 8C9.00736 8 8 9.00736 8 10.25ZM11.75 2.75H5M5 2.75C5 3.99264 3.99264 5 2.75 5C1.50736 5 0.5 3.99264 0.5 2.75C0.5 1.50736 1.50736 0.5 2.75 0.5C3.99264 0.5 5 1.50736 5 2.75Z" stroke="var(--stroke-0, #727D83)" stroke-linecap="round" stroke-linejoin="round"/>
</svg>
