<svg preserveAspectRatio="none" width="100%" height="100%" overflow="visible" style="display: block;" viewBox="0 0 48 48" fill="none" xmlns="http://www.w3.org/2000/svg">
<g id="lucide/users">
<path id="Vector" d="M32 42V38C32 35.8783 31.1571 33.8434 29.6569 32.3431C28.1566 30.8429 26.1217 30 24 30H12C9.87827 30 7.84344 30.8429 6.34315 32.3431C4.84285 33.8434 4 35.8783 4 38V42M32 6.256C33.7155 6.70074 35.2348 7.70253 36.3194 9.10413C37.4039 10.5057 37.9924 12.2278 37.9924 14C37.9924 15.7722 37.4039 17.4943 36.3194 18.8959C35.2348 20.2975 33.7155 21.2993 32 21.744M44 42V38C43.9987 36.2275 43.4087 34.5055 42.3227 33.1046C41.2368 31.7037 39.7163 30.7031 38 30.26M26 14C26 18.4183 22.4183 22 18 22C13.5817 22 10 18.4183 10 14C10 9.58172 13.5817 6 18 6C22.4183 6 26 9.58172 26 14Z" stroke="var(--stroke-0, #606D76)" stroke-width="2" stroke-linecap="round" stroke-linejoin="round"/>
</g>
</svg>
