<svg preserveAspectRatio="none" width="100%" height="100%" overflow="visible" style="display: block;" viewBox="0 0 14.6667 12.6667" fill="none" xmlns="http://www.w3.org/2000/svg">
<g id="Vector">
<path d="M2 12H12.6667C13.0203 12 13.3594 11.8595 13.6095 11.6095C13.8595 11.3594 14 11.0203 14 10.6667V4C14 3.64638 13.8595 3.30724 13.6095 3.05719C13.3594 2.80714 13.0203 2.66667 12.6667 2.66667H7.38C7.16039 2.66553 6.94446 2.61017 6.7514 2.50549C6.55834 2.40082 6.39412 2.25008 6.27333 2.06667L5.72667 1.26667C5.60588 1.08325 5.44166 0.932512 5.2486 0.827839C5.05554 0.723167 4.83961 0.667803 4.62 0.666667H2C1.64638 0.666667 1.30724 0.807142 1.05719 1.05719C0.807142 1.30724 0.666667 1.64638 0.666667 2V10.6667C0.666667 11.4 1.26667 12 2 12Z" stroke="var(--stroke-0, #606D76)" stroke-width="1.33333" stroke-linecap="round" stroke-linejoin="round"/>
<path d="M7.33333 8C7.70152 8 8 7.70152 8 7.33333C8 6.96514 7.70152 6.66667 7.33333 6.66667C6.96514 6.66667 6.66667 6.96514 6.66667 7.33333C6.66667 7.70152 6.96514 8 7.33333 8Z" stroke="var(--stroke-0, #606D76)" stroke-width="1.33333" stroke-linecap="round" stroke-linejoin="round"/>
</g>
</svg>
