<svg preserveAspectRatio="none" width="100%" height="100%" overflow="visible" style="display: block;" viewBox="0 0 16 16" fill="none" xmlns="http://www.w3.org/2000/svg">
<g id="lucide/folder-open-dot">
<path id="Vector" d="M4 9.33333L4.96667 7.4C5.07798 7.1791 5.24854 6.99353 5.45928 6.86402C5.67003 6.73451 5.91264 6.66618 6.16 6.66667H13.3333M13.3333 6.66667C13.537 6.66631 13.7381 6.71262 13.9211 6.80206C14.1041 6.89149 14.2642 7.02166 14.389 7.18258C14.5139 7.3435 14.6003 7.53089 14.6415 7.73037C14.6826 7.92985 14.6776 8.13611 14.6267 8.33333L13.5933 12.3333C13.5193 12.6199 13.3521 12.8738 13.1179 13.0548C12.8837 13.2359 12.596 13.3339 12.3 13.3333H2.66667C2.31304 13.3333 1.97391 13.1929 1.72386 12.9428C1.47381 12.6928 1.33333 12.3536 1.33333 12V3.33333C1.33333 2.6 1.93333 2 2.66667 2H5.28667C5.50628 2.00114 5.72221 2.0565 5.91527 2.16117C6.10833 2.26585 6.27255 2.41659 6.39333 2.6L6.94 3.4C7.06078 3.58341 7.225 3.73415 7.41807 3.83883C7.61113 3.9435 7.82706 3.99886 8.04667 4H12C12.3536 4 12.6928 4.14048 12.9428 4.39052C13.1929 4.64057 13.3333 4.97971 13.3333 5.33333V6.66667ZM10 10C10 10.3682 9.70152 10.6667 9.33333 10.6667C8.96514 10.6667 8.66667 10.3682 8.66667 10C8.66667 9.63181 8.96514 9.33333 9.33333 9.33333C9.70152 9.33333 10 9.63181 10 10Z" stroke="var(--stroke-0, #606D76)" stroke-width="1.33333" stroke-linecap="round" stroke-linejoin="round"/>
</g>
</svg>
