<svg preserveAspectRatio="none" width="100%" height="100%" overflow="visible" style="display: block;" viewBox="0 0 12 2.66667" fill="none" xmlns="http://www.w3.org/2000/svg">
<g id="Vector">
<path d="M6 2C6.36819 2 6.66667 1.70152 6.66667 1.33333C6.66667 0.965144 6.36819 0.666667 6 0.666667C5.63181 0.666667 5.33333 0.965144 5.33333 1.33333C5.33333 1.70152 5.63181 2 6 2Z" stroke="var(--stroke-0, #606D76)" stroke-width="1.33333" stroke-linecap="round" stroke-linejoin="round"/>
<path d="M10.6667 2C11.0349 2 11.3333 1.70152 11.3333 1.33333C11.3333 0.965144 11.0349 0.666667 10.6667 0.666667C10.2985 0.666667 10 0.965144 10 1.33333C10 1.70152 10.2985 2 10.6667 2Z" stroke="var(--stroke-0, #606D76)" stroke-width="1.33333" stroke-linecap="round" stroke-linejoin="round"/>
<path d="M1.33333 2C1.70152 2 2 1.70152 2 1.33333C2 0.965144 1.70152 0.666667 1.33333 0.666667C0.965144 0.666667 0.666667 0.965144 0.666667 1.33333C0.666667 1.70152 0.965144 2 1.33333 2Z" stroke="var(--stroke-0, #606D76)" stroke-width="1.33333" stroke-linecap="round" stroke-linejoin="round"/>
</g>
</svg>
