<svg preserveAspectRatio="none" width="100%" height="100%" overflow="visible" style="display: block;" viewBox="0 0 13.3309 13.3309" fill="none" xmlns="http://www.w3.org/2000/svg">
<path id="Vector" d="M6.33333 0.997547H1.66667C1.31304 0.997547 0.973906 1.13802 0.723858 1.38807C0.473809 1.63812 0.333333 1.97726 0.333333 2.33088V11.6642C0.333333 12.0178 0.473809 12.357 0.723858 12.607C0.973906 12.8571 1.31304 12.9975 1.66667 12.9975H11C11.3536 12.9975 11.6928 12.8571 11.9428 12.607C12.1929 12.357 12.3333 12.0178 12.3333 11.6642V6.99755M10.5833 0.747547C10.8486 0.48233 11.2083 0.333333 11.5833 0.333333C11.9584 0.333333 12.3181 0.48233 12.5833 0.747547C12.8486 1.01276 12.9975 1.37247 12.9975 1.74755C12.9975 2.12262 12.8486 2.48233 12.5833 2.74755L6.57467 8.75688C6.41637 8.91504 6.2208 9.03082 6.006 9.09355L4.09067 9.65355C4.0333 9.67028 3.97249 9.67128 3.91461 9.65645C3.85672 9.64162 3.80388 9.6115 3.76163 9.56925C3.71938 9.527 3.68926 9.47416 3.67443 9.41627C3.6596 9.35839 3.6606 9.29758 3.67733 9.24021L4.23733 7.32488C4.30035 7.11025 4.41636 6.91492 4.57467 6.75688L10.5833 0.747547Z" stroke="var(--stroke-0, #0B191F)" stroke-width="0.666667" stroke-linecap="round" stroke-linejoin="round"/>
</svg>
