<svg preserveAspectRatio="none" width="100%" height="100%" overflow="visible" style="display: block;" viewBox="0 0 11.3333 2" fill="none" xmlns="http://www.w3.org/2000/svg">
<g id="Vector">
<path d="M5.66667 1.66667C6.03486 1.66667 6.33333 1.36819 6.33333 1C6.33333 0.63181 6.03486 0.333333 5.66667 0.333333C5.29848 0.333333 5 0.63181 5 1C5 1.36819 5.29848 1.66667 5.66667 1.66667Z" stroke="var(--stroke-0, #0B191F)" stroke-width="0.666667" stroke-linecap="round" stroke-linejoin="round"/>
<path d="M10.3333 1.66667C10.7015 1.66667 11 1.36819 11 1C11 0.63181 10.7015 0.333333 10.3333 0.333333C9.96514 0.333333 9.66667 0.63181 9.66667 1C9.66667 1.36819 9.96514 1.66667 10.3333 1.66667Z" stroke="var(--stroke-0, #0B191F)" stroke-width="0.666667" stroke-linecap="round" stroke-linejoin="round"/>
<path d="M1 1.66667C1.36819 1.66667 1.66667 1.36819 1.66667 1C1.66667 0.63181 1.36819 0.333333 1 0.333333C0.63181 0.333333 0.333333 0.63181 0.333333 1C0.333333 1.36819 0.63181 1.66667 1 1.66667Z" stroke="var(--stroke-0, #0B191F)" stroke-width="0.666667" stroke-linecap="round" stroke-linejoin="round"/>
</g>
</svg>
