<svg preserveAspectRatio="none" width="100%" height="100%" overflow="visible" style="display: block;" viewBox="0 0 1.56 1.56" fill="none" xmlns="http://www.w3.org/2000/svg">
<path id="Vector" d="M0.96 1.23H0.15M0.96 1.23C0.96 1.37912 1.08088 1.5 1.23 1.5C1.37912 1.5 1.5 1.37912 1.5 1.23C1.5 1.08088 1.37912 0.96 1.23 0.96C1.08088 0.96 0.96 1.08088 0.96 1.23ZM1.41 0.33H0.6M0.6 0.33C0.6 0.479117 0.479117 0.6 0.33 0.6C0.180883 0.6 0.06 0.479117 0.06 0.33C0.06 0.180883 0.180883 0.06 0.33 0.06C0.479117 0.06 0.6 0.180883 0.6 0.33Z" stroke="var(--stroke-0, #727D83)" stroke-width="0.12" stroke-linecap="round" stroke-linejoin="round"/>
</svg>
