<svg preserveAspectRatio="none" width="100%" height="100%" overflow="visible" style="display: block;" viewBox="0 0 1.63971 1.63971" fill="none" xmlns="http://www.w3.org/2000/svg">
<path id="Vector" d="M0.78 0.139706H0.22C0.177565 0.139706 0.136869 0.156563 0.106863 0.186569C0.0768571 0.216574 0.06 0.257271 0.06 0.299706V1.41971C0.06 1.46214 0.0768571 1.50284 0.106863 1.53284C0.136869 1.56285 0.177565 1.57971 0.22 1.57971H1.34C1.38243 1.57971 1.42313 1.56285 1.45314 1.53284C1.48314 1.50284 1.5 1.46214 1.5 1.41971V0.859706M1.29 0.109706C1.32183 0.0778796 1.36499 0.06 1.41 0.06C1.45501 0.06 1.49817 0.0778796 1.53 0.109706C1.56183 0.141532 1.57971 0.184697 1.57971 0.229706C1.57971 0.274714 1.56183 0.31788 1.53 0.349706L0.80896 1.07083C0.789964 1.08981 0.766496 1.1037 0.74072 1.11123L0.51088 1.17843C0.503996 1.18043 0.496699 1.18055 0.489753 1.17877C0.482806 1.17699 0.476466 1.17338 0.471396 1.16831C0.466325 1.16324 0.462711 1.1569 0.460931 1.14995C0.459152 1.14301 0.459272 1.13571 0.46128 1.12883L0.52848 0.898986C0.536042 0.87323 0.549963 0.84979 0.56896 0.830826L1.29 0.109706Z" stroke="var(--stroke-0, #0B191F)" stroke-width="0.12" stroke-linecap="round" stroke-linejoin="round"/>
</svg>
