<svg preserveAspectRatio="none" width="100%" height="100%" overflow="visible" style="display: block;" viewBox="0 0 16 16" fill="none" xmlns="http://www.w3.org/2000/svg">
<g id="lucide/folder-dot">
<g id="Vector">
<path d="M2.66667 13.3333H13.3333C13.687 13.3333 14.0261 13.1929 14.2761 12.9428C14.5262 12.6928 14.6667 12.3536 14.6667 12V5.33333C14.6667 4.97971 14.5262 4.64057 14.2761 4.39052C14.0261 4.14048 13.687 4 13.3333 4H8.04667C7.82706 3.99886 7.61113 3.9435 7.41807 3.83883C7.225 3.73415 7.06078 3.58341 6.94 3.4L6.39333 2.6C6.27255 2.41659 6.10833 2.26585 5.91527 2.16117C5.7222 2.0565 5.50628 2.00114 5.28667 2H2.66667C2.31304 2 1.97391 2.14048 1.72386 2.39052C1.47381 2.64057 1.33333 2.97971 1.33333 3.33333V12C1.33333 12.7333 1.93333 13.3333 2.66667 13.3333Z" stroke="var(--stroke-0, #606D76)" stroke-width="1.33333" stroke-linecap="round" stroke-linejoin="round"/>
<path d="M8 9.33333C8.36819 9.33333 8.66667 9.03486 8.66667 8.66667C8.66667 8.29848 8.36819 8 8 8C7.63181 8 7.33333 8.29848 7.33333 8.66667C7.33333 9.03486 7.63181 9.33333 8 9.33333Z" stroke="var(--stroke-0, #606D76)" stroke-width="1.33333" stroke-linecap="round" stroke-linejoin="round"/>
</g>
</g>
</svg>
