<svg preserveAspectRatio="none" width="100%" height="100%" overflow="visible" style="display: block;" viewBox="0 0 16 16" fill="none" xmlns="http://www.w3.org/2000/svg">
<g id="lucide/folder-cog">
<path id="Vector" d="M6.86667 13.3333H2.66667C2.31304 13.3333 1.97391 13.1929 1.72386 12.9428C1.47381 12.6928 1.33333 12.3536 1.33333 12V3.33333C1.33333 2.97971 1.47381 2.64057 1.72386 2.39052C1.97391 2.14048 2.31304 2 2.66667 2H5.32C5.54299 1.99781 5.76297 2.05159 5.9598 2.15641C6.15663 2.26123 6.32403 2.41375 6.44667 2.6L6.88667 3.4C7.00807 3.58435 7.17335 3.73568 7.36767 3.8404C7.56198 3.94512 7.77926 3.99996 8 4H13.3333C13.687 4 14.0261 4.14048 14.2761 4.39052C14.5262 4.64057 14.6667 4.97971 14.6667 5.33333V7.53333M9.53667 13.02L10.152 12.7653M10.152 11.2347L9.53667 10.9793M11.2347 10.152L10.9793 9.53667M11.2347 13.848L10.9793 14.464M12.7653 10.152L13.0207 9.53667M13.02 14.464L12.7653 13.848M13.848 11.2347L14.464 10.9793M13.848 12.7653L14.464 13.0207M14 12C14 13.1046 13.1046 14 12 14C10.8954 14 10 13.1046 10 12C10 10.8954 10.8954 10 12 10C13.1046 10 14 10.8954 14 12Z" stroke="var(--stroke-0, #0B191F)" stroke-width="1.5" stroke-linecap="round" stroke-linejoin="round"/>
</g>
</svg>
