<svg preserveAspectRatio="none" width="100%" height="100%" overflow="visible" style="display: block;" viewBox="0 0 16 16" fill="none" xmlns="http://www.w3.org/2000/svg">
<g id="lucide/tag" clip-path="url(#clip0_0_2619)">
<g id="Vector">
<path d="M8.39093 1.72348C8.14094 1.47341 7.80185 1.33289 7.44826 1.33281H2.66693C2.31331 1.33281 1.97417 1.47329 1.72412 1.72334C1.47407 1.97339 1.33359 2.31252 1.33359 2.66615V7.44748C1.33367 7.80107 1.47419 8.14016 1.72426 8.39015L7.52693 14.1928C7.82994 14.4939 8.23976 14.6629 8.66693 14.6629C9.0941 14.6629 9.50392 14.4939 9.80693 14.1928L14.1936 9.80615C14.4947 9.50314 14.6637 9.09332 14.6637 8.66615C14.6637 8.23898 14.4947 7.82916 14.1936 7.52615L8.39093 1.72348Z" stroke="var(--stroke-0, #0B191F)" stroke-linecap="round" stroke-linejoin="round"/>
<path d="M5.00026 5.33281C5.18436 5.33281 5.33359 5.18357 5.33359 4.99948C5.33359 4.81538 5.18436 4.66615 5.00026 4.66615C4.81617 4.66615 4.66693 4.81538 4.66693 4.99948C4.66693 5.18357 4.81617 5.33281 5.00026 5.33281Z" stroke="var(--stroke-0, #0B191F)" stroke-linecap="round" stroke-linejoin="round"/>
</g>
</g>
<defs>
<clipPath id="clip0_0_2619">
<rect width="16" height="16" fill="white"/>
</clipPath>
</defs>
</svg>
