<svg preserveAspectRatio="none" width="100%" height="100%" overflow="visible" style="display: block;" viewBox="0 0 16 16" fill="none" xmlns="http://www.w3.org/2000/svg">
<g id="lucide/traffic-cone" clip-path="url(#clip0_0_357)">
<path id="Vector" d="M10.7 7.31067C10.391 7.52409 9.98513 7.69784 9.51579 7.81766C9.04645 7.93748 8.52698 7.99995 8 7.99995C7.47302 7.99995 6.95355 7.93748 6.48421 7.81766C6.01487 7.69784 5.60904 7.52409 5.3 7.31067M11.282 9.366L14.2687 10.726C14.3872 10.778 14.488 10.8634 14.5588 10.9717C14.6296 11.0801 14.6674 11.2067 14.6675 11.3361C14.6675 11.4655 14.6299 11.5922 14.5592 11.7006C14.4885 11.809 14.3878 11.8945 14.2693 11.9467L8.55333 14.5467C8.37962 14.6259 8.19093 14.6669 8 14.6669C7.80907 14.6669 7.62037 14.6259 7.44667 14.5467L1.73067 11.94C1.61237 11.8878 1.51179 11.8024 1.44117 11.6941C1.37056 11.5858 1.33297 11.4593 1.33297 11.33C1.33297 11.2007 1.37056 11.0742 1.44117 10.9659C1.51179 10.8576 1.61237 10.7722 1.73067 10.72L4.72 9.36M6.12933 4.38C6.68124 4.56701 7.33263 4.66697 7.99933 4.66697C8.66604 4.66697 9.31742 4.56701 9.86933 4.38M11.2993 9.42667C11.3667 9.66302 11.3317 9.90384 11.1968 10.1328C11.0618 10.3618 10.83 10.5737 10.5171 10.754C10.2042 10.9343 9.81748 11.0789 9.38309 11.1781C8.94871 11.2772 8.47681 11.3284 7.99933 11.3284C7.52186 11.3284 7.04996 11.2772 6.61557 11.1781C6.18118 11.0789 5.79445 10.9343 5.48154 10.754C5.16864 10.5737 4.93686 10.3618 4.80191 10.1328C4.66696 9.90384 4.63198 9.66302 4.69933 9.42667L6.70867 2.33333C6.78233 2.04682 6.94919 1.79295 7.18297 1.61167C7.41675 1.4304 7.70417 1.33202 8 1.33202C8.29583 1.33202 8.58325 1.4304 8.81703 1.61167C9.05081 1.79295 9.21767 2.04682 9.29133 2.33333L11.2993 9.42667Z" stroke="var(--stroke-0, #0B191F)" stroke-linecap="round" stroke-linejoin="round"/>
</g>
<defs>
<clipPath id="clip0_0_357">
<rect width="16" height="16" fill="white"/>
</clipPath>
</defs>
</svg>
