<svg preserveAspectRatio="none" width="100%" height="100%" overflow="visible" style="display: block;" viewBox="0 0 16 16" fill="none" xmlns="http://www.w3.org/2000/svg">
<g id="lucide/squircle-dashed">
<path id="Vector" d="M9.18 2.02867C8.39387 1.98769 7.60613 1.98769 6.82 2.02867M9.18067 13.9707C8.39436 14.0131 7.60633 14.0134 6.82 13.9713M13.4533 11.8267C13.1133 12.5933 12.5933 13.1133 11.8273 13.4533M13.4533 4.17267C13.1133 3.40733 12.5927 2.88667 11.8267 2.54733M13.9713 6.82C14.0136 7.6061 14.0136 8.3939 13.9713 9.18M2.02867 6.82C1.98788 7.60637 1.98811 8.39432 2.02933 9.18067M4.17333 13.4527C3.40667 13.114 2.88667 12.5927 2.54667 11.8273M4.17333 2.54667C3.40733 2.88667 2.88667 3.40733 2.54667 4.17333" stroke="var(--stroke-0, #606D76)" stroke-width="1.33333" stroke-linecap="round" stroke-linejoin="round"/>
</g>
</svg>
