<svg preserveAspectRatio="none" width="100%" height="100%" overflow="visible" style="display: block;" viewBox="0 0 16 16" fill="none" xmlns="http://www.w3.org/2000/svg">
<g id="lucide/flag">
<path id="Vector" d="M2.66667 14.6667V2.66667C2.66667 2.56317 2.69076 2.46109 2.73705 2.36852C2.78333 2.27595 2.85054 2.19543 2.93333 2.13333C3.62572 1.61404 4.46785 1.33333 5.33333 1.33333C7.33333 1.33333 8.66667 2.66667 10.222 2.66667C11.1109 2.66667 11.7924 2.48889 12.2667 2.13333C12.3657 2.05905 12.4835 2.01381 12.6068 2.00269C12.7301 1.99158 12.8541 2.01501 12.9648 2.07038C13.0755 2.12575 13.1687 2.21086 13.2338 2.31618C13.2989 2.4215 13.3333 2.54286 13.3333 2.66667V9.33333C13.3333 9.43683 13.3092 9.5389 13.263 9.63147C13.2167 9.72405 13.1495 9.80457 13.0667 9.86667C12.3743 10.386 11.5321 10.6667 10.6667 10.6667C8.66667 10.6667 7.33333 9.33333 5.33333 9.33333C4.34941 9.33336 3.40002 9.69603 2.66667 10.352" stroke="var(--stroke-0, #606D76)" stroke-width="1.33333" stroke-linecap="round" stroke-linejoin="round"/>
</g>
</svg>
