<svg preserveAspectRatio="none" width="100%" height="100%" overflow="visible" style="display: block;" viewBox="0 0 48 48" fill="none" xmlns="http://www.w3.org/2000/svg">
<g id="lucide/paperclip">
<path id="Vector" d="M32 12L15.172 29.172C14.4217 29.9223 14.0002 30.9399 14.0002 32.001C14.0002 33.0621 14.4217 34.0797 15.172 34.83C15.9223 35.5803 16.9399 36.0018 18.001 36.0018C19.0621 36.0018 20.0797 35.5803 20.83 34.83L37.658 17.658C39.1583 16.1577 40.0012 14.1228 40.0012 12.001C40.0012 9.87921 39.1583 7.84433 37.658 6.344C36.1577 4.84367 34.1228 4.00079 32.001 4.00079C29.8792 4.00079 27.8443 4.84367 26.344 6.344L9.586 23.446C8.4568 24.557 7.55873 25.8805 6.9436 27.3403C6.32847 28.8 6.00845 30.3672 6.002 31.9512C5.99555 33.5353 6.3028 35.105 6.90602 36.5697C7.50924 38.0345 8.3965 39.3653 9.51662 40.4854C10.6367 41.6055 11.9675 42.4928 13.4323 43.096C14.897 43.6992 16.4667 44.0065 18.0508 44C19.6348 43.9936 21.202 43.6735 22.6617 43.0584C24.1215 42.4433 25.445 41.5452 26.556 40.416L43.314 23.314" stroke="var(--stroke-0, #606D76)" stroke-width="2" stroke-linecap="round" stroke-linejoin="round"/>
</g>
</svg>
