<svg preserveAspectRatio="none" width="100%" height="100%" overflow="visible" style="display: block;" viewBox="0 0 13.33 13.3301" fill="none" xmlns="http://www.w3.org/2000/svg">
<g id="lucide/message-circle">
<path id="Vector" d="M1.4441 9.18128C1.52931 9.39625 1.54829 9.6318 1.49858 9.85764L0.881339 11.7644C0.861451 11.8611 0.866593 11.9613 0.896277 12.0554C0.925962 12.1496 0.979205 12.2346 1.05096 12.3024C1.12271 12.3702 1.21059 12.4186 1.30628 12.4429C1.40196 12.4672 1.50226 12.4667 1.59768 12.4413L3.57573 11.8629C3.78885 11.8207 4.00956 11.8391 4.21268 11.9163C5.45027 12.4942 6.85223 12.6165 8.17119 12.2615C9.49015 11.9065 10.6414 11.0971 11.4217 9.97608C12.202 8.85504 12.5614 7.49441 12.4363 6.13425C12.3112 4.7741 11.7097 3.50182 10.738 2.54191C9.76632 1.58199 8.48679 0.996116 7.12521 0.887656C5.76363 0.779195 4.40749 1.15512 3.29606 1.94909C2.18463 2.74307 1.38935 3.90408 1.05051 5.22728C0.711674 6.55049 0.851068 7.95084 1.4441 9.18128Z" stroke="var(--stroke-0, #606D76)" stroke-linecap="round" stroke-linejoin="round"/>
</g>
</svg>
