<svg width="68" height="68" viewBox="0 0 68 68" fill="none" xmlns="http://www.w3.org/2000/svg">
<path d="M34 34.0003H34.0284M45.3334 17.0003V11.3337C45.3334 9.83077 44.7363 8.38943 43.6736 7.32672C42.6109 6.26401 41.1696 5.66699 39.6667 5.66699H28.3334C26.8305 5.66699 25.3891 6.26401 24.3264 7.32672C23.2637 8.38943 22.6667 9.83077 22.6667 11.3337V17.0003M62.3334 36.8337C53.9263 42.3841 44.0741 45.343 34 45.343C23.926 45.343 14.0738 42.3841 5.66669 36.8337M11.3334 17.0003H56.6667C59.7963 17.0003 62.3334 19.5374 62.3334 22.667V51.0003C62.3334 54.1299 59.7963 56.667 56.6667 56.667H11.3334C8.20374 56.667 5.66669 54.1299 5.66669 51.0003V22.667C5.66669 19.5374 8.20374 17.0003 11.3334 17.0003Z" stroke="#0B191F" stroke-width="4" stroke-linecap="round" stroke-linejoin="round"/>
</svg>
