<svg width="68" height="68" viewBox="0 0 68 68" fill="none" xmlns="http://www.w3.org/2000/svg">
<path d="M62.3333 28.3337V45.3337M17 35.417V45.3337C17 47.588 18.791 49.75 21.9792 51.3441C25.1673 52.9382 29.4913 53.8337 34 53.8337C38.5087 53.8337 42.8327 52.9382 46.0208 51.3441C49.2089 49.75 51 47.588 51 45.3337V35.417M60.69 30.946C61.1972 30.7223 61.6276 30.3546 61.9279 29.8886C62.2283 29.4227 62.3853 28.8788 62.3796 28.3245C62.3738 27.7701 62.2056 27.2296 61.8957 26.7699C61.5858 26.3103 61.1479 25.9516 60.6361 25.7384L36.3516 14.677C35.6134 14.3403 34.8114 14.166 34 14.166C33.1885 14.166 32.3866 14.3403 31.6483 14.677L7.36664 25.727C6.86222 25.9479 6.43311 26.3111 6.13178 26.772C5.83046 27.2329 5.66998 27.7717 5.66998 28.3224C5.66998 28.873 5.83046 29.4118 6.13178 29.8727C6.43311 30.3336 6.86222 30.6968 7.36664 30.9177L31.6483 41.9904C32.3866 42.3271 33.1885 42.5014 34 42.5014C34.8114 42.5014 35.6134 42.3271 36.3516 41.9904L60.69 30.946Z" stroke="#606D76" stroke-width="4" stroke-linecap="round" stroke-linejoin="round"/>
</svg>
