<svg width="68" height="68" viewBox="0 0 68 68" fill="none" xmlns="http://www.w3.org/2000/svg">
<path d="M59.5 48.1665L53.3913 42.8738C53.1894 42.6824 52.9356 42.5547 52.6616 42.5065C52.3876 42.4584 52.1054 42.4921 51.8504 42.6033C51.5953 42.7145 51.3787 42.8983 51.2275 43.1318C51.0762 43.3654 50.9971 43.6383 51 43.9165V45.3332C51 46.0846 50.7015 46.8053 50.1701 47.3366C49.6388 47.868 48.9181 48.1665 48.1667 48.1665H42.5C41.7486 48.1665 41.0279 47.868 40.4965 47.3366C39.9652 46.8053 39.6667 46.0846 39.6667 45.3332C39.6667 38.1223 28.3588 34.0848 15.5833 33.9998C13.7047 33.9998 11.903 34.7461 10.5747 36.0745C9.24628 37.4029 8.5 39.2046 8.5 41.0832C8.5 42.9618 9.24628 44.7635 10.5747 46.0918C11.903 47.4202 13.7047 48.1665 15.5833 48.1665C27.3502 48.1665 29.0275 16.164 31.756 9.91651C32.2169 8.86192 32.9279 7.93554 33.8273 7.2175C34.7268 6.49947 35.7876 6.01142 36.9181 5.79559C38.0486 5.57976 39.2147 5.64264 40.3154 5.9788C41.4161 6.31496 42.4184 6.91427 43.2354 7.72487C44.0524 8.53547 44.6596 9.53295 45.0044 10.631C45.3492 11.729 45.4213 12.8945 45.2144 14.0267C45.0075 15.1589 44.5278 16.2235 43.8169 17.1286C43.106 18.0337 42.1852 18.752 41.1343 19.2212M8.5 59.4998H59.5" stroke="#606D76" stroke-width="4" stroke-linecap="round" stroke-linejoin="round"/>
</svg>
