<svg width="68" height="68" viewBox="0 0 68 68" fill="none" xmlns="http://www.w3.org/2000/svg">
<path d="M51 59.5C51 53.4884 48.6119 47.7231 44.361 43.4722C40.1102 39.2214 34.3449 36.8333 28.3333 36.8333M28.3333 36.8333C22.3217 36.8333 16.5564 39.2214 12.3055 43.4722C8.05471 47.7231 5.66663 53.4884 5.66663 59.5M28.3333 36.8333C36.1573 36.8333 42.5 30.4907 42.5 22.6667C42.5 14.8426 36.1573 8.5 28.3333 8.5C20.5093 8.5 14.1666 14.8426 14.1666 22.6667C14.1666 30.4907 20.5093 36.8333 28.3333 36.8333ZM62.3333 56.6667C62.3333 47.1183 56.6666 38.25 51 34C52.8626 32.6025 54.3521 30.7674 55.3366 28.6571C56.321 26.5468 56.7701 24.2263 56.644 21.9011C56.5179 19.5759 55.8206 17.3176 54.6138 15.3261C53.407 13.3346 51.7278 11.6712 49.725 10.4833" stroke="#0B191F" stroke-width="4" stroke-linecap="round" stroke-linejoin="round"/>
</svg>
