<svg width="222" height="26" viewBox="0 0 222 26" fill="none" xmlns="http://www.w3.org/2000/svg">
<path d="M8.18553 16.6934C8.18553 18.4873 9.97411 19.3843 13.5513 19.3843C15.9682 19.3843 19.0029 18.4712 22.6553 16.645L24.2988 15.7749C26.791 14.5073 28.1982 14.2334 28.5205 14.9531C28.6064 15.1465 28.6494 15.3721 28.6494 15.6299C28.6494 15.877 28.542 16.1348 28.3271 16.4033C28.123 16.6611 27.8437 16.9512 27.4892 17.2734C27.1348 17.585 26.7212 17.918 26.2485 18.2725C25.7759 18.6162 25.2764 18.96 24.75 19.3037L23.1709 20.2866C22.6338 20.6089 22.0537 20.9258 21.4306 21.2373L19.0781 22.3975C15.3935 24.1162 11.9184 24.9756 8.65282 24.9756C5.79539 24.9756 3.59862 24.4116 2.06248 23.2837C0.687485 22.2847 -1.52588e-05 20.9956 -1.52588e-05 19.4165C-1.52588e-05 17.2358 0.982895 15.0391 2.94872 12.8262C4.64598 10.9248 6.97166 9.12012 9.92577 7.41211C12.5039 5.91895 15.2539 4.69434 18.1758 3.73828C20.9365 2.8252 23.1763 2.36865 24.895 2.36865C25.2602 2.36865 25.5664 2.48682 25.8135 2.72314C26.2646 3.14209 26.4902 3.55566 26.4902 3.96387C26.4902 5.55371 25.8296 6.8374 24.5083 7.81494C23.3804 8.64209 22.0644 9.05566 20.5605 9.05566C19.0566 9.05566 17.9287 8.90527 17.1767 8.60449C14.373 9.68945 12.0957 11.145 10.3447 12.9712C9.61424 13.7339 9.07176 14.4482 8.71727 15.1143C8.36278 15.7803 8.18553 16.3066 8.18553 16.6934ZM42.3624 14.3408C42.3624 14.9209 42.8566 15.2109 43.8449 15.2109C44.5753 15.2109 45.5314 14.8564 46.713 14.1475L48.0021 13.4385C48.3996 13.2129 48.7433 13.1001 49.0333 13.1001C49.3341 13.1001 49.5705 13.1914 49.7423 13.374C49.9142 13.5566 50.0001 13.8091 50.0001 14.1313C50.0001 14.4536 49.8927 14.8296 49.6779 15.2593C49.463 15.6782 49.1676 16.124 48.7916 16.5967C48.4157 17.0586 47.9752 17.5205 47.4704 17.9824C46.9655 18.4336 46.423 18.8418 45.8429 19.207C44.5539 20.0127 43.3561 20.4155 42.2497 20.4155C41.0788 20.4155 40.1442 20.2168 39.4459 19.8193C39.2311 19.6904 39.0216 19.5562 38.8175 19.4165C37.6681 20.7271 36.0031 21.9302 33.8224 23.0259C31.5021 24.186 29.4772 24.7661 27.7477 24.7661C25.9323 24.7661 24.4982 24.0518 23.4455 22.623C22.5968 21.4629 22.1725 20.2866 22.1725 19.0942C22.1725 17.3755 23.091 15.7373 24.9279 14.1797C26.2814 13.041 27.5866 12.1763 28.8434 11.5854C30.111 10.9946 31.255 10.5381 32.2755 10.2158C34.4347 9.53906 36.379 9.20068 38.1085 9.20068C38.882 9.20068 39.5695 9.35107 40.171 9.65186C40.7833 9.94189 41.2345 10.2373 41.5246 10.5381C42.2121 11.2148 42.5558 12.0796 42.5558 13.1323C42.5558 13.4438 42.5236 13.6855 42.4591 13.8574C42.3947 14.0293 42.3624 14.1904 42.3624 14.3408ZM29.1818 17.3862L29.1657 17.4346V17.4507C29.1657 17.9126 29.2677 18.2134 29.4718 18.353C29.966 18.6538 30.487 18.7344 31.0348 18.5947C31.5827 18.4443 32.1037 18.2617 32.5978 18.0469C33.8224 17.5205 34.9289 16.8545 35.9171 16.0488C35.7453 15.7051 35.6593 15.3506 35.6593 14.9854C35.6593 14.2119 35.9977 13.4385 36.6745 12.665C35.8151 12.665 34.6549 13.0679 33.194 13.8735C31.5827 14.7651 30.3742 15.6836 29.5685 16.6289C29.3107 16.9512 29.1818 17.2036 29.1818 17.3862ZM64.4705 15.6138C64.4705 16.5913 64.7552 17.0801 65.3245 17.0801C66.721 17.0801 68.5364 16.1348 70.7708 14.2441L71.2059 13.8735C72.076 13.2935 72.7796 13.0034 73.3167 13.0034C73.8646 13.0034 74.2083 13.084 74.348 13.2451C74.4983 13.4062 74.5735 13.6641 74.5735 14.0186C74.5735 14.8135 74.1707 15.6567 73.365 16.5483C72.1619 18.0093 70.513 19.395 68.4183 20.7056C65.9905 22.231 63.8152 22.9937 61.8924 22.9937C60.5496 22.9937 59.7064 22.2471 59.3626 20.7539C59.2659 20.3672 59.1961 19.9966 59.1531 19.6421C59.0457 18.7827 58.9329 18.3047 58.8148 18.208C58.6966 18.1113 58.4603 18.1221 58.1058 18.2402C57.762 18.3477 57.3484 18.5356 56.865 18.8042C56.3924 19.062 55.866 19.3789 55.2859 19.7549C52.2137 21.7959 50.4466 22.9614 49.9847 23.2515C48.8782 23.939 48.1316 24.2827 47.7449 24.2827C47.3582 24.2827 46.9769 24.2021 46.6009 24.041C46.2356 23.8799 45.9134 23.6758 45.6341 23.4287C45.054 22.8809 44.764 22.3223 44.764 21.7529C44.764 18.498 45.473 15.6514 46.8909 13.2129C47.8362 11.5693 48.9964 10.4307 50.3714 9.79688C51.0696 9.46387 51.8216 9.29736 52.6273 9.29736C54.0989 9.29736 54.8348 9.78076 54.8348 10.7476C54.8348 11.3384 54.4856 12.3052 53.7874 13.6479L53.304 14.5986C52.9603 15.2539 52.7938 15.6245 52.8045 15.7104C52.8689 16.0327 53.014 16.1938 53.2396 16.1938C53.4866 16.1938 53.8519 16.0112 54.3353 15.646L57.3001 13.4385L58.7825 12.4072C60.4905 11.29 61.7474 10.7314 62.553 10.7314C62.9827 10.7314 63.3748 10.9033 63.7293 11.2471C64.3846 11.8701 64.7122 12.4126 64.7122 12.8745C64.7122 13.0249 64.6961 13.2075 64.6639 13.4224C64.6424 13.6372 64.6155 13.8682 64.5833 14.1152L64.5189 14.8726C64.4866 15.1304 64.4705 15.3774 64.4705 15.6138ZM88.3671 13.229C89.4199 13.229 89.9463 13.5942 89.9463 14.3247C89.9463 15.0229 89.4521 15.9253 88.4638 17.0317L87.6743 17.8535C86.7182 18.8311 85.601 19.7925 84.3227 20.7378C83.0551 21.6831 81.938 22.4297 80.9712 22.9775C78.726 24.2236 76.6904 24.8467 74.8642 24.8467C73.1455 24.8467 71.7436 24.3311 70.6587 23.2998C69.7241 22.4082 69.2568 21.4683 69.2568 20.48C69.2568 19.4917 69.3535 18.5088 69.5468 17.5312C69.7402 16.5537 69.9926 15.5977 70.3042 14.6631C70.9272 12.7617 71.6093 11.145 72.3505 9.81299C72.5439 9.44775 72.6406 9.21143 72.6406 9.104H70.562C69.7778 9.104 69.1709 8.92139 68.7412 8.55615C68.3115 8.19092 68.0966 7.77734 68.0966 7.31543C68.0966 6.85352 68.1826 6.51514 68.3545 6.30029C68.5263 6.08545 68.7412 5.92969 68.999 5.83301C69.3642 5.68262 69.9013 5.60742 70.6103 5.60742L74.5581 5.62354C74.644 5.59131 74.8159 5.36035 75.0737 4.93066L76.0566 3.23877C76.4755 2.48682 76.8945 1.93359 77.3134 1.5791C77.7431 1.22461 78.2426 1.04736 78.812 1.04736C79.3921 1.04736 79.8755 1.10107 80.2622 1.2085C80.6596 1.31592 80.9926 1.4502 81.2612 1.61133C81.7876 1.95508 82.0507 2.33105 82.0507 2.73926C82.0507 2.91113 81.9917 3.14209 81.8735 3.43213L80.9712 5.62354L88.625 5.60742C89.291 5.60742 89.624 5.95117 89.624 6.63867C89.624 8.27148 88.1684 9.08789 85.2573 9.08789L79.3598 9.104C79.2309 9.16846 79.0107 9.47998 78.6992 10.0386L77.9741 11.376C77.7915 11.709 77.6626 11.9614 77.5874 12.1333L77.2329 12.9229C76.5131 14.5449 76.1533 15.7158 76.1533 16.4355C76.1533 17.1553 76.3413 17.7568 76.7172 18.2402C77.104 18.7236 77.6142 18.9653 78.248 18.9653C78.8818 18.9653 79.4995 18.8418 80.101 18.5947C80.7133 18.3477 81.3095 18.0469 81.8896 17.6924C82.9423 17.0371 83.7695 16.4302 84.3711 15.8716C84.9726 15.313 85.4721 14.8887 85.8696 14.5986C85.8696 14.5986 86.2456 14.3354 86.9975 13.8091C87.5776 13.4224 88.0341 13.229 88.3671 13.229ZM100.34 5.63965C100.028 5.89746 99.6901 6.1123 99.3248 6.28418C98.9596 6.44531 98.5514 6.52588 98.1002 6.52588C97.649 6.52588 97.214 6.45068 96.795 6.30029C96.3761 6.1499 96.0109 5.94043 95.6993 5.67188C95.0226 5.0918 94.6842 4.35059 94.6842 3.44824C94.6842 2.0625 95.8444 1.03125 98.1647 0.354492C98.9489 0.118164 99.5934 0 100.098 0C100.603 0 100.979 0.059082 101.226 0.177246C101.484 0.284668 101.693 0.429688 101.855 0.612305C102.177 0.977539 102.338 1.35352 102.338 1.74023C102.338 2.11621 102.29 2.45996 102.193 2.77148C102.107 3.08301 101.978 3.40527 101.806 3.73828C101.634 4.07129 101.425 4.4043 101.178 4.7373C100.931 5.07031 100.651 5.37109 100.34 5.63965ZM96.2794 23.3804C95.463 23.7993 94.6681 24.1323 93.8947 24.3794C93.1212 24.6372 92.3585 24.7661 91.6066 24.7661C90.8654 24.7661 90.0919 24.5889 89.2863 24.2344C88.4913 23.8691 87.7823 23.3857 87.1593 22.7842C85.7736 21.4414 85.0807 19.9482 85.0807 18.3047C85.0807 16.79 85.5319 15.2539 86.4342 13.6963C87.2614 12.2891 88.3141 11.1074 89.5924 10.1514C90.8707 9.19531 92.0577 8.71729 93.1534 8.71729C94.7218 8.71729 95.5597 9.15771 95.6671 10.0386C95.6993 10.3071 95.7155 10.6187 95.7155 10.9731C95.7155 11.3276 95.6295 11.7358 95.4576 12.1978C95.2965 12.6489 95.0817 13.1055 94.8131 13.5674C94.5553 14.0186 94.2653 14.4644 93.943 14.9048C93.6315 15.3345 93.3307 15.7266 93.0406 16.0811C92.4821 16.7578 92.0363 17.2466 91.7032 17.5474C91.7032 17.9126 91.9772 18.2886 92.525 18.6753C93.0406 19.0405 93.4757 19.2231 93.8302 19.2231C94.1954 19.2231 94.6198 19.1372 95.1031 18.9653C95.5973 18.7935 96.1022 18.5625 96.6178 18.2725C97.1442 17.9824 97.6759 17.6494 98.213 17.2734C98.7609 16.8975 99.298 16.5107 99.8243 16.1133L102.773 13.8091C103.944 12.9604 104.895 12.5361 105.625 12.5361C105.915 12.5361 106.135 12.6436 106.286 12.8584C106.447 13.0625 106.527 13.3042 106.527 13.5835C106.527 13.8628 106.388 14.2495 106.109 14.7437C105.829 15.2271 105.443 15.7642 104.948 16.355C104.465 16.9458 103.896 17.5635 103.24 18.208C102.585 18.8525 101.876 19.4863 101.113 20.1094C100.351 20.7324 99.5558 21.3286 98.7286 21.8979C97.9122 22.4565 97.0958 22.9507 96.2794 23.3804ZM120.079 15.6138C120.079 16.5913 120.364 17.0801 120.933 17.0801C122.33 17.0801 124.145 16.1348 126.38 14.2441L126.815 13.8735C127.685 13.2935 128.388 13.0034 128.926 13.0034C129.473 13.0034 129.817 13.084 129.957 13.2451C130.107 13.4062 130.182 13.6641 130.182 14.0186C130.182 14.8135 129.78 15.6567 128.974 16.5483C127.771 18.0093 126.122 19.395 124.027 20.7056C121.599 22.231 119.424 22.9937 117.501 22.9937C116.158 22.9937 115.315 22.2471 114.971 20.7539C114.875 20.3672 114.805 19.9966 114.762 19.6421C114.655 18.7827 114.542 18.3047 114.424 18.208C114.305 18.1113 114.069 18.1221 113.715 18.2402C113.371 18.3477 112.957 18.5356 112.474 18.8042C112.001 19.062 111.475 19.3789 110.895 19.7549C107.823 21.7959 106.055 22.9614 105.594 23.2515C104.487 23.939 103.741 24.2827 103.354 24.2827C102.967 24.2827 102.586 24.2021 102.21 24.041C101.845 23.8799 101.522 23.6758 101.243 23.4287C100.663 22.8809 100.373 22.3223 100.373 21.7529C100.373 18.498 101.082 15.6514 102.5 13.2129C103.445 11.5693 104.605 10.4307 105.98 9.79688C106.678 9.46387 107.43 9.29736 108.236 9.29736C109.708 9.29736 110.444 9.78076 110.444 10.7476C110.444 11.3384 110.095 12.3052 109.396 13.6479L108.913 14.5986C108.569 15.2539 108.403 15.6245 108.413 15.7104C108.478 16.0327 108.623 16.1938 108.848 16.1938C109.095 16.1938 109.461 16.0112 109.944 15.646L112.909 13.4385L114.391 12.4072C116.099 11.29 117.356 10.7314 118.162 10.7314C118.592 10.7314 118.984 10.9033 119.338 11.2471C119.993 11.8701 120.321 12.4126 120.321 12.8745C120.321 13.0249 120.305 13.2075 120.273 13.4224C120.251 13.6372 120.224 13.8682 120.192 14.1152L120.128 14.8726C120.095 15.1304 120.079 15.3774 120.079 15.6138ZM145.845 16.1616C145.845 17.2466 146.323 17.7891 147.279 17.7891C148.235 17.7891 149.89 16.8706 152.242 15.0337L153.66 13.8735C154.595 13.1001 155.486 12.7134 156.335 12.7134C156.646 12.7134 156.851 12.7993 156.947 12.9712C157.044 13.1323 157.092 13.3418 157.092 13.5996C157.092 13.8467 157.044 14.1099 156.947 14.3892C156.861 14.6577 156.738 14.9424 156.577 15.2432C156.222 15.9199 155.878 16.4463 155.545 16.8223C155.212 17.1982 154.82 17.5903 154.369 17.9985C153.929 18.396 153.402 18.8472 152.79 19.3521C152.178 19.8462 151.501 20.3564 150.76 20.8828C150.019 21.3984 149.272 21.8711 148.52 22.3008C146.823 23.2891 145.426 23.7832 144.331 23.7832C143.02 23.7832 141.994 23.3213 141.253 22.3975C140.555 21.5381 140.163 20.3887 140.077 18.9492C138.143 20.9365 136.097 22.4673 133.937 23.5415C132.616 24.1968 131.499 24.5244 130.586 24.5244C129.673 24.5244 128.873 24.417 128.185 24.2021C127.498 23.9766 126.896 23.6436 126.38 23.2031C125.263 22.2686 124.705 20.9688 124.705 19.3037C124.705 16.9189 125.559 14.6201 127.267 12.4072C127.804 11.7197 128.405 11.1182 129.071 10.6025C130.511 9.7002 132.036 9.24902 133.647 9.24902C134.356 9.24902 134.861 9.46924 135.162 9.90967C135.28 10.0815 135.339 10.3071 135.339 10.5864C135.339 10.855 135.259 11.1719 135.098 11.5371C134.947 11.8916 134.759 12.2676 134.534 12.665C134.308 13.0518 134.056 13.4546 133.776 13.8735C133.508 14.2925 133.261 14.7007 133.035 15.0981C132.498 16.0435 132.229 16.7256 132.229 17.1445C132.229 17.5527 132.348 17.8535 132.584 18.0469C132.82 18.2402 133.11 18.3369 133.454 18.3369C134.217 18.3369 134.867 18.1543 135.404 17.7891C135.941 17.4131 136.473 16.9834 136.999 16.5L138.514 15.0176L139.98 13.5029C141.022 12.4395 141.811 11.7788 142.349 11.521C142.896 11.2524 143.294 11.1504 143.541 11.2148C143.788 11.2793 144.04 11.3975 144.298 11.5693C144.556 11.7305 144.809 11.9292 145.056 12.1655C145.636 12.7241 145.958 13.229 146.022 13.6802C146.044 13.9702 146.017 14.4053 145.942 14.9854C145.877 15.5547 145.845 15.9468 145.845 16.1616ZM172.61 16.1616C172.61 17.2466 173.088 17.7891 174.044 17.7891C175 17.7891 176.654 16.8706 179.007 15.0337L180.425 13.8735C181.359 13.1001 182.251 12.7134 183.1 12.7134C183.411 12.7134 183.615 12.7993 183.712 12.9712C183.809 13.1323 183.857 13.3418 183.857 13.5996C183.857 13.8467 183.809 14.1099 183.712 14.3892C183.626 14.6577 183.503 14.9424 183.341 15.2432C182.987 15.9199 182.643 16.4463 182.31 16.8223C181.977 17.1982 181.585 17.5903 181.134 17.9985C180.693 18.396 180.167 18.8472 179.555 19.3521C178.942 19.8462 178.266 20.3564 177.525 20.8828C176.783 21.3984 176.037 21.8711 175.285 22.3008C173.588 23.2891 172.191 23.7832 171.095 23.7832C169.785 23.7832 168.759 23.3213 168.018 22.3975C167.319 21.5381 166.927 20.3887 166.841 18.9492C164.908 20.9365 162.861 22.4673 160.702 23.5415C159.381 24.1968 158.264 24.5244 157.351 24.5244C156.438 24.5244 155.637 24.417 154.95 24.2021C154.262 23.9766 153.661 23.6436 153.145 23.2031C152.028 22.2686 151.469 20.9688 151.469 19.3037C151.469 16.9189 152.323 14.6201 154.031 12.4072C154.568 11.7197 155.17 11.1182 155.836 10.6025C157.275 9.7002 158.801 9.24902 160.412 9.24902C161.121 9.24902 161.626 9.46924 161.927 9.90967C162.045 10.0815 162.104 10.3071 162.104 10.5864C162.104 10.855 162.024 11.1719 161.862 11.5371C161.712 11.8916 161.524 12.2676 161.298 12.665C161.073 13.0518 160.82 13.4546 160.541 13.8735C160.273 14.2925 160.025 14.7007 159.8 15.0981C159.263 16.0435 158.994 16.7256 158.994 17.1445C158.994 17.5527 159.112 17.8535 159.349 18.0469C159.585 18.2402 159.875 18.3369 160.219 18.3369C160.982 18.3369 161.631 18.1543 162.169 17.7891C162.706 17.4131 163.237 16.9834 163.764 16.5L165.278 15.0176L166.745 13.5029C167.787 12.4395 168.576 11.7788 169.113 11.521C169.661 11.2524 170.059 11.1504 170.306 11.2148C170.553 11.2793 170.805 11.3975 171.063 11.5693C171.321 11.7305 171.573 11.9292 171.82 12.1655C172.4 12.7241 172.723 13.229 172.787 13.6802C172.809 13.9702 172.782 14.4053 172.707 14.9854C172.642 15.5547 172.61 15.9468 172.61 16.1616ZM210.283 15.4365C210.283 17.0156 210.778 17.8052 211.766 17.8052C212.453 17.8052 213.64 17.2036 215.327 16.0005C216.852 14.8726 217.76 14.1636 218.05 13.8735C218.716 13.3149 219.414 13.0356 220.145 13.0356C220.456 13.0356 220.719 13.1431 220.934 13.3579C221.16 13.562 221.273 13.8735 221.273 14.2925C221.273 14.7114 221.171 15.0928 220.967 15.4365C220.762 15.7803 220.499 16.1348 220.177 16.5C219.865 16.8652 219.473 17.2734 219.001 17.7246C218.539 18.1758 218.007 18.6538 217.406 19.1587C216.804 19.6528 216.143 20.147 215.424 20.6411C214.715 21.1353 213.979 21.5811 213.216 21.9785C211.497 22.8594 209.945 23.2998 208.559 23.2998C206.969 23.2998 205.89 22.5801 205.321 21.1406C204.988 20.3135 204.821 19.3198 204.821 18.1597L200.132 21.334C196.92 23.5898 195.008 24.7876 194.396 24.9272C194.084 25.0024 193.767 25.04 193.445 25.04C193.134 25.04 192.838 25.0078 192.559 24.9434C192.28 24.8896 192.032 24.793 191.818 24.6533C191.324 24.3633 191.076 23.9336 191.076 23.3643C191.076 23.1387 191.227 22.5908 191.528 21.7207L192.913 17.918C193.343 16.6934 193.558 15.9575 193.558 15.7104C193.558 15.6245 193.504 15.5815 193.397 15.5815C193.289 15.5815 193.091 15.6943 192.801 15.9199C192.511 16.1455 192.161 16.4355 191.753 16.79L187.918 20.1416L185.904 21.8174C183.842 23.4609 182.16 24.2827 180.861 24.2827C180.248 24.2827 179.631 24.0088 179.008 23.4609C178.331 22.8809 177.992 22.1826 177.992 21.3662C177.992 20.5498 178.073 19.6582 178.234 18.6914C178.385 17.7246 178.605 16.7954 178.895 15.9038C179.185 15.0015 179.545 14.1582 179.974 13.374C180.404 12.5791 180.893 11.8916 181.441 11.3115C182.622 10.0439 184.013 9.41016 185.614 9.41016C187.225 9.41016 188.031 9.88281 188.031 10.8281C188.031 11.2363 187.811 11.8594 187.37 12.6973C186.436 14.5449 185.969 15.5439 185.969 15.6943C185.969 15.834 186.011 15.9468 186.097 16.0327C186.194 16.1079 186.296 16.1455 186.404 16.1455C186.629 16.1455 186.951 15.9629 187.37 15.5977C190.131 13.1807 191.866 11.6821 192.575 11.1021C193.295 10.522 193.988 10.0117 194.654 9.57129C196.179 8.57227 197.393 8.07275 198.295 8.07275C199.036 8.07275 199.638 8.19092 200.1 8.42725C200.906 8.84619 201.308 9.31885 201.308 9.84521C201.308 10.3716 201.233 10.9678 201.083 11.6338C200.943 12.2998 200.787 12.9443 200.615 13.5674L200.132 15.2109C199.982 15.6836 199.907 16.0488 199.907 16.3066C199.907 16.5537 200.014 16.6772 200.229 16.6772C200.744 16.6772 201.77 15.9468 203.306 14.4858L204.869 13.0195C206.663 11.4082 208.022 10.6025 208.946 10.6025C209.386 10.6025 209.779 10.7744 210.122 11.1182C210.724 11.7197 211.025 12.2461 211.025 12.6973C211.025 12.9443 210.939 13.2773 210.767 13.6963C210.445 14.4805 210.283 15.0605 210.283 15.4365Z" fill="#252014"/>
</svg>
