<svg width="20" height="20" viewBox="0 0 20 20" fill="none" xmlns="http://www.w3.org/2000/svg">
<path fill-rule="evenodd" clip-rule="evenodd" d="M4.00568 9.77736C4.00568 9.14224 4.11116 8.53336 4.29943 7.96225L1.00409 5.4458C0.361847 6.7498 0 8.21913 0 9.77736C0 11.3342 0.361401 12.8027 1.00276 14.1058L4.29632 11.5845C4.10983 11.016 4.00568 10.4094 4.00568 9.77736Z" fill="#FBBC05"/>
<path fill-rule="evenodd" clip-rule="evenodd" d="M9.79167 4C11.1714 4 12.4176 4.48889 13.3968 5.28889L16.2453 2.44444C14.5095 0.933333 12.2841 0 9.79167 0C5.92218 0 2.59657 2.21289 1.00409 5.44622L4.29943 7.96267C5.05873 5.65778 7.22313 4 9.79167 4Z" fill="#EB4335"/>
<path fill-rule="evenodd" clip-rule="evenodd" d="M9.79167 15.5554C7.22313 15.5554 5.05873 13.8977 4.29943 11.5928L1.00409 14.1088C2.59657 17.3426 5.92218 19.5554 9.79167 19.5554C12.1799 19.5554 14.4601 18.7074 16.1714 17.1186L13.0434 14.7003C12.1608 15.2563 11.0494 15.5554 9.79167 15.5554Z" fill="#34A853"/>
<path fill-rule="evenodd" clip-rule="evenodd" d="M19.1382 9.77729C19.1382 9.19951 19.0492 8.57729 18.9157 7.99951H9.79166V11.7773H15.0435C14.781 13.0653 14.0662 14.0555 13.0434 14.7L16.1714 17.1182C17.969 15.4497 19.1382 12.9644 19.1382 9.77729Z" fill="#4285F4"/>
</svg>
