<svg width="358" height="41" viewBox="0 0 358 41" fill="none" xmlns="http://www.w3.org/2000/svg">
<path d="M13.2229 26.966C13.2229 29.8639 16.1122 31.3129 21.8906 31.3129C25.795 31.3129 30.6972 29.8379 36.5971 26.8879L39.2521 25.4823C43.2779 23.4347 45.5511 22.9922 46.0717 24.1549C46.2105 24.4672 46.2799 24.8316 46.2799 25.2481C46.2799 25.6472 46.1064 26.0637 45.7594 26.4975C45.4297 26.914 44.9785 27.3825 44.4058 27.9031C43.8332 28.4063 43.1651 28.9442 42.4016 29.5169C41.6381 30.0722 40.8312 30.6274 39.9809 31.1827L37.43 32.7705C36.5624 33.2911 35.6254 33.803 34.6189 34.3062L30.8186 36.1803C24.8666 38.9568 19.253 40.345 13.9778 40.345C9.36194 40.345 5.8133 39.434 3.33186 37.6119C1.1107 35.9981 0.0001279 33.9158 0.0001279 31.3649C0.0001279 27.8423 1.58791 24.2937 4.76346 20.719C7.5052 17.6476 11.2621 14.7323 16.0341 11.9732C20.1987 9.56119 24.6411 7.58297 29.361 6.03858C33.8207 4.56359 37.4387 3.8261 40.2152 3.8261C40.8052 3.8261 41.2997 4.01698 41.6988 4.39874C42.4276 5.0755 42.792 5.74358 42.792 6.40298C42.792 8.97119 41.7248 11.0448 39.5905 12.6239C37.7684 13.9601 35.6427 14.6282 33.2133 14.6282C30.7839 14.6282 28.9619 14.3853 27.7472 13.8994C23.2181 15.652 19.5393 18.0033 16.7108 20.9533C15.5309 22.1853 14.6545 23.3393 14.0819 24.4152C13.5093 25.491 13.2229 26.3413 13.2229 26.966ZM68.4318 23.1658C68.4318 24.1028 69.23 24.5713 70.8265 24.5713C72.0065 24.5713 73.5509 23.9987 75.4597 22.8534L77.542 21.7081C78.184 21.3437 78.7393 21.1615 79.2079 21.1615C79.6937 21.1615 80.0755 21.309 80.3531 21.604C80.6308 21.899 80.7696 22.3068 80.7696 22.8274C80.7696 23.348 80.5961 23.9553 80.249 24.6494C79.902 25.3262 79.4248 26.0463 78.8174 26.8098C78.2101 27.556 77.4986 28.3022 76.683 29.0483C75.8674 29.7772 74.9911 30.4366 74.0541 31.0266C71.9718 32.328 70.0369 32.9787 68.2496 32.9787C66.3581 32.9787 64.8484 32.6577 63.7205 32.0157C63.3735 31.8074 63.0351 31.5905 62.7054 31.3649C60.8486 33.482 58.159 35.4255 54.6363 37.1955C50.8881 39.0696 47.6172 40.0066 44.8234 40.0066C41.8907 40.0066 39.5741 38.8527 37.8736 36.5447C36.5027 34.6706 35.8173 32.7705 35.8173 30.8444C35.8173 28.0679 37.3009 25.4216 40.2683 22.9055C42.4547 21.0661 44.5631 19.6692 46.5933 18.7148C48.641 17.7604 50.489 17.0229 52.1375 16.5023C55.6255 15.4091 58.7663 14.8625 61.5601 14.8625C62.8095 14.8625 63.9201 15.1054 64.8918 15.5913C65.8809 16.0598 66.6098 16.537 67.0783 17.0229C68.1889 18.1161 68.7441 19.513 68.7441 21.2136C68.7441 21.7168 68.6921 22.1072 68.588 22.3849C68.4838 22.6625 68.4318 22.9228 68.4318 23.1658ZM47.1399 28.0853L47.1139 28.1633V28.1894C47.1139 28.9355 47.2788 29.4214 47.6085 29.647C48.4067 30.1329 49.2483 30.263 50.1333 30.0374C51.0183 29.7945 51.8599 29.4995 52.6581 29.1525C54.6363 28.3022 56.4237 27.2263 58.0201 25.9248C57.7425 25.3696 57.6037 24.7969 57.6037 24.2069C57.6037 22.9575 58.1503 21.7081 59.2435 20.4587C57.8553 20.4587 55.9812 21.1095 53.6212 22.4109C51.0183 23.8512 49.0661 25.3348 47.7646 26.8619C47.3482 27.3825 47.1399 27.7903 47.1399 28.0853ZM104.145 25.2221C104.145 26.8012 104.605 27.5907 105.524 27.5907C107.78 27.5907 110.713 26.0637 114.322 23.0096L115.025 22.4109C116.431 21.4739 117.567 21.0053 118.435 21.0053C119.32 21.0053 119.875 21.1355 120.101 21.3958C120.344 21.6561 120.465 22.0725 120.465 22.6452C120.465 23.9293 119.814 25.2915 118.513 26.7317C116.569 29.0917 113.906 31.3302 110.522 33.4473C106.6 35.9114 103.086 37.1434 99.9802 37.1434C97.8111 37.1434 96.4489 35.9374 95.8936 33.5254C95.7374 32.9007 95.6246 32.302 95.5552 31.7293C95.3817 30.3411 95.1995 29.5689 95.0086 29.4127C94.8177 29.2566 94.436 29.2739 93.8633 29.4648C93.308 29.6383 92.6399 29.942 91.8591 30.3758C91.0955 30.7923 90.2453 31.3042 89.3082 31.9115C84.3453 35.2086 81.4908 37.0913 80.7446 37.5599C78.9573 38.6704 77.7513 39.2257 77.1266 39.2257C76.5019 39.2257 75.8858 39.0956 75.2785 38.8353C74.6885 38.575 74.1679 38.2453 73.7168 37.8462C72.7797 36.9612 72.3112 36.0589 72.3112 35.1392C72.3112 29.8813 73.4565 25.2828 75.747 21.3437C77.2741 18.6887 79.1482 16.8493 81.3693 15.8255C82.4973 15.2876 83.7119 15.0186 85.0134 15.0186C87.3907 15.0186 88.5794 15.7995 88.5794 17.3613C88.5794 18.3157 88.0154 19.8774 86.8875 22.0465L86.1066 23.5822C85.5513 24.6407 85.2824 25.2394 85.2997 25.3782C85.4038 25.8988 85.6381 26.1591 86.0025 26.1591C86.4016 26.1591 86.9916 25.8641 87.7725 25.2741L92.5619 21.7081L94.9565 20.0423C97.7156 18.2376 99.7459 17.3352 101.047 17.3352C101.741 17.3352 102.375 17.6129 102.947 18.1682C104.006 19.1746 104.535 20.0509 104.535 20.7971C104.535 21.04 104.509 21.335 104.457 21.6821C104.422 22.0291 104.379 22.4022 104.327 22.8013L104.223 24.0247C104.171 24.4412 104.145 24.8403 104.145 25.2221ZM142.747 21.3697C144.448 21.3697 145.298 21.9597 145.298 23.1397C145.298 24.2677 144.5 25.7253 142.903 27.5126L141.628 28.8401C140.083 30.4192 138.279 31.9723 136.214 33.4993C134.166 35.0264 132.361 36.2324 130.8 37.1174C127.173 39.1303 123.885 40.1368 120.935 40.1368C118.158 40.1368 115.894 39.3038 114.141 37.638C112.631 36.1977 111.877 34.6793 111.877 33.0829C111.877 31.4864 112.033 29.8986 112.345 28.3195C112.657 26.7404 113.065 25.196 113.568 23.6863C114.575 20.6149 115.677 18.0033 116.874 15.8516C117.186 15.2616 117.343 14.8798 117.343 14.7063H113.985C112.718 14.7063 111.738 14.4113 111.044 13.8213C110.349 13.2313 110.002 12.5632 110.002 11.817C110.002 11.0709 110.141 10.5243 110.419 10.1772C110.697 9.83015 111.044 9.57854 111.46 9.42236C112.05 9.17943 112.918 9.05796 114.063 9.05796L120.44 9.08399C120.579 9.03193 120.857 8.65884 121.273 7.96473L122.861 5.23167C123.538 4.01698 124.214 3.12331 124.891 2.55067C125.585 1.97803 126.392 1.69171 127.312 1.69171C128.249 1.69171 129.03 1.77847 129.654 1.952C130.296 2.12553 130.834 2.34244 131.268 2.60273C132.119 3.15802 132.544 3.76536 132.544 4.42477C132.544 4.70241 132.448 5.0755 132.257 5.54402L130.8 9.08399L143.164 9.05796C144.239 9.05796 144.777 9.61325 144.777 10.7238C144.777 13.3614 142.426 14.6803 137.723 14.6803L128.197 14.7063C127.989 14.8104 127.633 15.3136 127.13 16.216L125.958 18.3764C125.663 18.9143 125.455 19.3221 125.334 19.5998L124.761 20.8752C123.598 23.4955 123.017 25.3869 123.017 26.5495C123.017 27.7122 123.321 28.6839 123.928 29.4648C124.553 30.2457 125.377 30.6361 126.401 30.6361C127.425 30.6361 128.422 30.4366 129.394 30.0374C130.383 29.6383 131.346 29.1525 132.283 28.5798C133.984 27.5213 135.32 26.5409 136.292 25.6385C137.264 24.7362 138.071 24.0507 138.713 23.5822C138.713 23.5822 139.32 23.1571 140.535 22.3068C141.472 21.6821 142.209 21.3697 142.747 21.3697ZM162.088 9.11002C161.585 9.52648 161.038 9.87354 160.448 10.1512C159.858 10.4115 159.199 10.5416 158.47 10.5416C157.741 10.5416 157.038 10.4201 156.361 10.1772C155.685 9.93427 155.095 9.59589 154.591 9.16207C153.498 8.22502 152.952 7.02768 152.952 5.57005C152.952 3.33154 154.826 1.66568 158.574 0.572455C159.841 0.190695 160.882 -0.000185858 161.697 -0.000185858C162.513 -0.000185858 163.12 0.0952543 163.519 0.286135C163.936 0.459662 164.274 0.693925 164.535 0.988922C165.055 1.57892 165.315 2.18626 165.315 2.81096C165.315 3.41831 165.237 3.9736 165.081 4.47683C164.942 4.98006 164.734 5.50064 164.456 6.03858C164.179 6.57651 163.84 7.11445 163.441 7.65238C163.042 8.19032 162.591 8.6762 162.088 9.11002ZM155.528 37.7681C154.21 38.4449 152.926 38.9828 151.676 39.3819C150.427 39.7984 149.195 40.0066 147.98 40.0066C146.783 40.0066 145.533 39.7203 144.232 39.1476C142.948 38.5577 141.802 37.7768 140.796 36.805C138.557 34.6359 137.438 32.2239 137.438 29.5689C137.438 27.1222 138.167 24.6407 139.625 22.1246C140.961 19.8514 142.661 17.9426 144.726 16.3982C146.791 14.8538 148.709 14.0816 150.479 14.0816C153.012 14.0816 154.366 14.793 154.539 16.216C154.591 16.6498 154.617 17.153 154.617 17.7257C154.617 18.2983 154.479 18.9577 154.201 19.7039C153.941 20.4327 153.594 21.1702 153.16 21.9164C152.743 22.6452 152.275 23.3653 151.754 24.0768C151.251 24.7709 150.765 25.4043 150.297 25.9769C149.394 27.0701 148.674 27.8597 148.136 28.3456C148.136 28.9355 148.579 29.5429 149.464 30.1676C150.297 30.7576 150.999 31.0526 151.572 31.0526C152.162 31.0526 152.847 30.9138 153.628 30.6361C154.427 30.3585 155.242 29.9854 156.075 29.5169C156.925 29.0483 157.784 28.5104 158.652 27.9031C159.537 27.2957 160.405 26.671 161.255 26.029L166.018 22.3068C167.91 20.9359 169.445 20.2505 170.625 20.2505C171.094 20.2505 171.45 20.424 171.693 20.7711C171.953 21.1008 172.083 21.4912 172.083 21.9424C172.083 22.3936 171.857 23.0183 171.406 23.8165C170.955 24.5974 170.33 25.465 169.532 26.4194C168.751 27.3738 167.832 28.3716 166.773 29.4127C165.715 30.4539 164.569 31.4777 163.337 32.4842C162.105 33.4906 160.821 34.4537 159.485 35.3734C158.166 36.2758 156.847 37.074 155.528 37.7681ZM193.975 25.2221C193.975 26.8012 194.434 27.5907 195.354 27.5907C197.61 27.5907 200.543 26.0637 204.152 23.0096L204.855 22.4109C206.26 21.4739 207.397 21.0053 208.265 21.0053C209.15 21.0053 209.705 21.1355 209.93 21.3958C210.173 21.6561 210.295 22.0725 210.295 22.6452C210.295 23.9293 209.644 25.2915 208.343 26.7317C206.399 29.0917 203.735 31.3302 200.352 33.4473C196.43 35.9114 192.916 37.1434 189.81 37.1434C187.641 37.1434 186.279 35.9374 185.723 33.5254C185.567 32.9007 185.454 32.302 185.385 31.7293C185.211 30.3411 185.029 29.5689 184.838 29.4127C184.647 29.2566 184.266 29.2739 183.693 29.4648C183.138 29.6383 182.47 29.942 181.689 30.3758C180.925 30.7923 180.075 31.3042 179.138 31.9115C174.175 35.2086 171.32 37.0913 170.574 37.5599C168.787 38.6704 167.581 39.2257 166.956 39.2257C166.332 39.2257 165.716 39.0956 165.108 38.8353C164.518 38.575 163.998 38.2453 163.546 37.8462C162.609 36.9612 162.141 36.0589 162.141 35.1392C162.141 29.8813 163.286 25.2828 165.577 21.3437C167.104 18.6887 168.978 16.8493 171.199 15.8255C172.327 15.2876 173.542 15.0186 174.843 15.0186C177.22 15.0186 178.409 15.7995 178.409 17.3613C178.409 18.3157 177.845 19.8774 176.717 22.0465L175.936 23.5822C175.381 24.6407 175.112 25.2394 175.129 25.3782C175.234 25.8988 175.468 26.1591 175.832 26.1591C176.231 26.1591 176.821 25.8641 177.602 25.2741L182.392 21.7081L184.786 20.0423C187.545 18.2376 189.576 17.3352 190.877 17.3352C191.571 17.3352 192.205 17.6129 192.777 18.1682C193.836 19.1746 194.365 20.0509 194.365 20.7971C194.365 21.04 194.339 21.335 194.287 21.6821C194.252 22.0291 194.209 22.4022 194.157 22.8013L194.053 24.0247C194.001 24.4412 193.975 24.8403 193.975 25.2221ZM235.596 26.107C235.596 27.8597 236.368 28.736 237.913 28.736C239.457 28.736 242.129 27.2523 245.93 24.285L248.22 22.4109C249.73 21.1615 251.17 20.5368 252.541 20.5368C253.044 20.5368 253.374 20.6756 253.53 20.9533C253.686 21.2136 253.765 21.5519 253.765 21.9684C253.765 22.3675 253.686 22.7927 253.53 23.2438C253.391 23.6777 253.192 24.1375 252.932 24.6234C252.359 25.7166 251.804 26.5669 251.266 27.1742C250.728 27.7816 250.094 28.415 249.366 29.0744C248.654 29.7164 247.804 30.4452 246.815 31.2608C245.826 32.059 244.732 32.8833 243.535 33.7336C242.338 34.5665 241.132 35.33 239.917 36.0242C237.175 37.6206 234.919 38.4188 233.149 38.4188C231.032 38.4188 229.375 37.6727 228.178 36.1803C227.05 34.7921 226.417 32.9354 226.278 30.6101C223.154 33.8204 219.849 36.2931 216.361 38.0284C214.226 39.0869 212.422 39.6162 210.947 39.6162C209.472 39.6162 208.179 39.4426 207.068 39.0956C205.958 38.7312 204.986 38.1932 204.153 37.4818C202.348 35.9721 201.446 33.8724 201.446 31.1827C201.446 27.3304 202.825 23.6169 205.585 20.0423C206.452 18.9317 207.424 17.9599 208.5 17.127C210.825 15.6694 213.289 14.9405 215.892 14.9405C217.037 14.9405 217.853 15.2963 218.339 16.0077C218.53 16.2854 218.625 16.6498 218.625 17.101C218.625 17.5348 218.495 18.0467 218.235 18.6367C217.992 19.2093 217.688 19.8167 217.324 20.4587C216.959 21.0834 216.552 21.7342 216.1 22.4109C215.667 23.0877 215.267 23.7471 214.903 24.3891C214.035 25.9162 213.602 27.0181 213.602 27.6948C213.602 28.3542 213.792 28.8401 214.174 29.1525C214.556 29.4648 215.024 29.621 215.58 29.621C216.812 29.621 217.862 29.326 218.729 28.736C219.597 28.1286 220.456 27.4345 221.306 26.6537L223.753 24.259L226.122 21.8122C227.805 20.0943 229.08 19.0271 229.948 18.6107C230.833 18.1768 231.475 18.012 231.874 18.1161C232.273 18.2202 232.681 18.4111 233.097 18.6887C233.514 18.949 233.922 19.2701 234.321 19.6518C235.258 20.5542 235.778 21.3697 235.882 22.0986C235.917 22.5671 235.874 23.2699 235.752 24.2069C235.648 25.1266 235.596 25.76 235.596 26.107ZM278.832 26.107C278.832 27.8597 279.604 28.736 281.148 28.736C282.693 28.736 285.365 27.2523 289.165 24.285L291.456 22.4109C292.965 21.1615 294.406 20.5368 295.777 20.5368C296.28 20.5368 296.61 20.6756 296.766 20.9533C296.922 21.2136 297 21.5519 297 21.9684C297 22.3675 296.922 22.7927 296.766 23.2438C296.627 23.6777 296.427 24.1375 296.167 24.6234C295.594 25.7166 295.039 26.5669 294.501 27.1742C293.963 27.7816 293.33 28.415 292.601 29.0744C291.89 29.7164 291.039 30.4452 290.05 31.2608C289.061 32.059 287.968 32.8833 286.771 33.7336C285.573 34.5665 284.367 35.33 283.152 36.0242C280.411 37.6206 278.155 38.4188 276.385 38.4188C274.268 38.4188 272.611 37.6727 271.413 36.1803C270.285 34.7921 269.652 32.9354 269.513 30.6101C266.39 33.8204 263.084 36.2931 259.596 38.0284C257.462 39.0869 255.657 39.6162 254.182 39.6162C252.707 39.6162 251.414 39.4426 250.304 39.0956C249.193 38.7312 248.221 38.1932 247.388 37.4818C245.584 35.9721 244.681 33.8724 244.681 31.1827C244.681 27.3304 246.061 23.6169 248.82 20.0423C249.688 18.9317 250.659 17.9599 251.735 17.127C254.061 15.6694 256.525 14.9405 259.128 14.9405C260.273 14.9405 261.088 15.2963 261.574 16.0077C261.765 16.2854 261.861 16.6498 261.861 17.101C261.861 17.5348 261.73 18.0467 261.47 18.6367C261.227 19.2093 260.924 19.8167 260.559 20.4587C260.195 21.0834 259.787 21.7342 259.336 22.4109C258.902 23.0877 258.503 23.7471 258.138 24.3891C257.271 25.9162 256.837 27.0181 256.837 27.6948C256.837 28.3542 257.028 28.8401 257.41 29.1525C257.791 29.4648 258.26 29.621 258.815 29.621C260.047 29.621 261.097 29.326 261.965 28.736C262.832 28.1286 263.691 27.4345 264.542 26.6537L266.988 24.259L269.357 21.8122C271.04 20.0943 272.316 19.0271 273.183 18.6107C274.068 18.1768 274.71 18.012 275.109 18.1161C275.509 18.2202 275.916 18.4111 276.333 18.6887C276.749 18.949 277.157 19.2701 277.556 19.6518C278.493 20.5542 279.014 21.3697 279.118 22.0986C279.153 22.5671 279.109 23.2699 278.988 24.2069C278.884 25.1266 278.832 25.76 278.832 26.107ZM339.689 24.9357C339.689 27.4866 340.487 28.762 342.083 28.762C343.194 28.762 345.112 27.7903 347.836 25.8468C350.3 24.0247 351.766 22.8794 352.235 22.4109C353.311 21.5086 354.439 21.0574 355.619 21.0574C356.122 21.0574 356.547 21.2309 356.894 21.578C357.258 21.9077 357.441 22.4109 357.441 23.0877C357.441 23.7644 357.276 24.3804 356.946 24.9357C356.616 25.491 356.191 26.0637 355.671 26.6537C355.167 27.2437 354.534 27.9031 353.771 28.6319C353.024 29.3607 352.165 30.1329 351.194 30.9485C350.222 31.7467 349.155 32.5449 347.992 33.3431C346.847 34.1414 345.658 34.8615 344.426 35.5036C341.65 36.9265 339.142 37.638 336.904 37.638C334.335 37.638 332.591 36.4753 331.672 34.1501C331.134 32.8139 330.865 31.2088 330.865 29.3347L323.29 34.4624C318.102 38.1065 315.013 40.0413 314.024 40.2669C313.521 40.3884 313.009 40.4491 312.488 40.4491C311.985 40.4491 311.508 40.397 311.057 40.2929C310.606 40.2062 310.206 40.05 309.859 39.8244C309.061 39.3559 308.662 38.6618 308.662 37.7421C308.662 37.3777 308.905 36.4927 309.391 35.0871L311.629 28.9442C312.323 26.966 312.671 25.7773 312.671 25.3782C312.671 25.2394 312.584 25.17 312.41 25.17C312.237 25.17 311.916 25.3522 311.447 25.7166C310.979 26.081 310.415 26.5495 309.755 27.1222L303.56 32.5362L300.307 35.2433C296.975 37.8982 294.259 39.2257 292.16 39.2257C291.17 39.2257 290.173 38.7832 289.166 37.8982C288.073 36.9612 287.526 35.8333 287.526 34.5145C287.526 33.1957 287.657 31.7554 287.917 30.1936C288.16 28.6319 288.515 27.1309 288.984 25.6906C289.453 24.2329 290.034 22.8708 290.728 21.604C291.422 20.3199 292.212 19.2093 293.097 18.2723C295.005 16.2246 297.253 15.2008 299.838 15.2008C302.441 15.2008 303.743 15.9644 303.743 17.4914C303.743 18.1508 303.387 19.1573 302.675 20.5108C301.166 23.4955 300.411 25.1093 300.411 25.3522C300.411 25.5778 300.48 25.76 300.619 25.8988C300.775 26.0203 300.94 26.081 301.114 26.081C301.478 26.081 301.999 25.786 302.675 25.196C307.135 21.2917 309.937 18.8709 311.083 17.9339C312.245 16.9968 313.365 16.1726 314.441 15.4611C316.905 13.8473 318.865 13.0404 320.323 13.0404C321.52 13.0404 322.492 13.2313 323.238 13.6131C324.54 14.2898 325.191 15.0533 325.191 15.9036C325.191 16.7539 325.069 17.717 324.826 18.7929C324.601 19.8687 324.349 20.9099 324.071 21.9164L323.29 24.5713C323.047 25.3348 322.926 25.9248 322.926 26.3413C322.926 26.7404 323.1 26.94 323.447 26.94C324.28 26.94 325.937 25.76 328.418 23.4L330.943 21.0314C333.841 18.4284 336.036 17.127 337.528 17.127C338.24 17.127 338.873 17.4046 339.428 17.9599C340.4 18.9317 340.886 19.782 340.886 20.5108C340.886 20.9099 340.747 21.4478 340.47 22.1246C339.949 23.3913 339.689 24.3284 339.689 24.9357Z" fill="white"/>
<path d="M13.2229 26.966C13.2229 29.8639 16.1122 31.3129 21.8906 31.3129C25.795 31.3129 30.6972 29.8379 36.5971 26.8879L39.2521 25.4823C43.2779 23.4347 45.5511 22.9922 46.0717 24.1549C46.2105 24.4672 46.2799 24.8316 46.2799 25.2481C46.2799 25.6472 46.1064 26.0637 45.7594 26.4975C45.4297 26.914 44.9785 27.3825 44.4058 27.9031C43.8332 28.4063 43.1651 28.9442 42.4016 29.5169C41.6381 30.0722 40.8312 30.6274 39.9809 31.1827L37.43 32.7705C36.5624 33.2911 35.6254 33.803 34.6189 34.3062L30.8186 36.1803C24.8666 38.9568 19.253 40.345 13.9778 40.345C9.36194 40.345 5.8133 39.434 3.33186 37.6119C1.1107 35.9981 0.0001279 33.9158 0.0001279 31.3649C0.0001279 27.8423 1.58791 24.2937 4.76346 20.719C7.5052 17.6476 11.2621 14.7323 16.0341 11.9732C20.1987 9.56119 24.6411 7.58297 29.361 6.03858C33.8207 4.56359 37.4387 3.8261 40.2152 3.8261C40.8052 3.8261 41.2997 4.01698 41.6988 4.39874C42.4276 5.0755 42.792 5.74358 42.792 6.40298C42.792 8.97119 41.7248 11.0448 39.5905 12.6239C37.7684 13.9601 35.6427 14.6282 33.2133 14.6282C30.7839 14.6282 28.9619 14.3853 27.7472 13.8994C23.2181 15.652 19.5393 18.0033 16.7108 20.9533C15.5309 22.1853 14.6545 23.3393 14.0819 24.4152C13.5093 25.491 13.2229 26.3413 13.2229 26.966ZM68.4318 23.1658C68.4318 24.1028 69.23 24.5713 70.8265 24.5713C72.0065 24.5713 73.5509 23.9987 75.4597 22.8534L77.542 21.7081C78.184 21.3437 78.7393 21.1615 79.2079 21.1615C79.6937 21.1615 80.0755 21.309 80.3531 21.604C80.6308 21.899 80.7696 22.3068 80.7696 22.8274C80.7696 23.348 80.5961 23.9553 80.249 24.6494C79.902 25.3262 79.4248 26.0463 78.8174 26.8098C78.2101 27.556 77.4986 28.3022 76.683 29.0483C75.8674 29.7772 74.9911 30.4366 74.0541 31.0266C71.9718 32.328 70.0369 32.9787 68.2496 32.9787C66.3581 32.9787 64.8484 32.6577 63.7205 32.0157C63.3735 31.8074 63.0351 31.5905 62.7054 31.3649C60.8486 33.482 58.159 35.4255 54.6363 37.1955C50.8881 39.0696 47.6172 40.0066 44.8234 40.0066C41.8907 40.0066 39.5741 38.8527 37.8736 36.5447C36.5027 34.6706 35.8173 32.7705 35.8173 30.8444C35.8173 28.0679 37.3009 25.4216 40.2683 22.9055C42.4547 21.0661 44.5631 19.6692 46.5933 18.7148C48.641 17.7604 50.489 17.0229 52.1375 16.5023C55.6255 15.4091 58.7663 14.8625 61.5601 14.8625C62.8095 14.8625 63.9201 15.1054 64.8918 15.5913C65.8809 16.0598 66.6098 16.537 67.0783 17.0229C68.1889 18.1161 68.7441 19.513 68.7441 21.2136C68.7441 21.7168 68.6921 22.1072 68.588 22.3849C68.4838 22.6625 68.4318 22.9228 68.4318 23.1658ZM47.1399 28.0853L47.1139 28.1633V28.1894C47.1139 28.9355 47.2788 29.4214 47.6085 29.647C48.4067 30.1329 49.2483 30.263 50.1333 30.0374C51.0183 29.7945 51.8599 29.4995 52.6581 29.1525C54.6363 28.3022 56.4237 27.2263 58.0201 25.9248C57.7425 25.3696 57.6037 24.7969 57.6037 24.2069C57.6037 22.9575 58.1503 21.7081 59.2435 20.4587C57.8553 20.4587 55.9812 21.1095 53.6212 22.4109C51.0183 23.8512 49.0661 25.3348 47.7646 26.8619C47.3482 27.3825 47.1399 27.7903 47.1399 28.0853ZM104.145 25.2221C104.145 26.8012 104.605 27.5907 105.524 27.5907C107.78 27.5907 110.713 26.0637 114.322 23.0096L115.025 22.4109C116.431 21.4739 117.567 21.0053 118.435 21.0053C119.32 21.0053 119.875 21.1355 120.101 21.3958C120.344 21.6561 120.465 22.0725 120.465 22.6452C120.465 23.9293 119.814 25.2915 118.513 26.7317C116.569 29.0917 113.906 31.3302 110.522 33.4473C106.6 35.9114 103.086 37.1434 99.9802 37.1434C97.8111 37.1434 96.4489 35.9374 95.8936 33.5254C95.7374 32.9007 95.6246 32.302 95.5552 31.7293C95.3817 30.3411 95.1995 29.5689 95.0086 29.4127C94.8177 29.2566 94.436 29.2739 93.8633 29.4648C93.308 29.6383 92.6399 29.942 91.8591 30.3758C91.0955 30.7923 90.2453 31.3042 89.3082 31.9115C84.3453 35.2086 81.4908 37.0913 80.7446 37.5599C78.9573 38.6704 77.7513 39.2257 77.1266 39.2257C76.5019 39.2257 75.8858 39.0956 75.2785 38.8353C74.6885 38.575 74.1679 38.2453 73.7168 37.8462C72.7797 36.9612 72.3112 36.0589 72.3112 35.1392C72.3112 29.8813 73.4565 25.2828 75.747 21.3437C77.2741 18.6887 79.1482 16.8493 81.3693 15.8255C82.4973 15.2876 83.7119 15.0186 85.0134 15.0186C87.3907 15.0186 88.5794 15.7995 88.5794 17.3613C88.5794 18.3157 88.0154 19.8774 86.8875 22.0465L86.1066 23.5822C85.5513 24.6407 85.2824 25.2394 85.2997 25.3782C85.4038 25.8988 85.6381 26.1591 86.0025 26.1591C86.4016 26.1591 86.9916 25.8641 87.7725 25.2741L92.5619 21.7081L94.9565 20.0423C97.7156 18.2376 99.7459 17.3352 101.047 17.3352C101.741 17.3352 102.375 17.6129 102.947 18.1682C104.006 19.1746 104.535 20.0509 104.535 20.7971C104.535 21.04 104.509 21.335 104.457 21.6821C104.422 22.0291 104.379 22.4022 104.327 22.8013L104.223 24.0247C104.171 24.4412 104.145 24.8403 104.145 25.2221ZM142.747 21.3697C144.448 21.3697 145.298 21.9597 145.298 23.1397C145.298 24.2677 144.5 25.7253 142.903 27.5126L141.628 28.8401C140.083 30.4192 138.279 31.9723 136.214 33.4993C134.166 35.0264 132.361 36.2324 130.8 37.1174C127.173 39.1303 123.885 40.1368 120.935 40.1368C118.158 40.1368 115.894 39.3038 114.141 37.638C112.631 36.1977 111.877 34.6793 111.877 33.0829C111.877 31.4864 112.033 29.8986 112.345 28.3195C112.657 26.7404 113.065 25.196 113.568 23.6863C114.575 20.6149 115.677 18.0033 116.874 15.8516C117.186 15.2616 117.343 14.8798 117.343 14.7063H113.985C112.718 14.7063 111.738 14.4113 111.044 13.8213C110.349 13.2313 110.002 12.5632 110.002 11.817C110.002 11.0709 110.141 10.5243 110.419 10.1772C110.697 9.83015 111.044 9.57854 111.46 9.42236C112.05 9.17943 112.918 9.05796 114.063 9.05796L120.44 9.08399C120.579 9.03193 120.857 8.65884 121.273 7.96473L122.861 5.23167C123.538 4.01698 124.214 3.12331 124.891 2.55067C125.585 1.97803 126.392 1.69171 127.312 1.69171C128.249 1.69171 129.03 1.77847 129.654 1.952C130.296 2.12553 130.834 2.34244 131.268 2.60273C132.119 3.15802 132.544 3.76536 132.544 4.42477C132.544 4.70241 132.448 5.0755 132.257 5.54402L130.8 9.08399L143.164 9.05796C144.239 9.05796 144.777 9.61325 144.777 10.7238C144.777 13.3614 142.426 14.6803 137.723 14.6803L128.197 14.7063C127.989 14.8104 127.633 15.3136 127.13 16.216L125.958 18.3764C125.663 18.9143 125.455 19.3221 125.334 19.5998L124.761 20.8752C123.598 23.4955 123.017 25.3869 123.017 26.5495C123.017 27.7122 123.321 28.6839 123.928 29.4648C124.553 30.2457 125.377 30.6361 126.401 30.6361C127.425 30.6361 128.422 30.4366 129.394 30.0374C130.383 29.6383 131.346 29.1525 132.283 28.5798C133.984 27.5213 135.32 26.5409 136.292 25.6385C137.264 24.7362 138.071 24.0507 138.713 23.5822C138.713 23.5822 139.32 23.1571 140.535 22.3068C141.472 21.6821 142.209 21.3697 142.747 21.3697ZM162.088 9.11002C161.585 9.52648 161.038 9.87354 160.448 10.1512C159.858 10.4115 159.199 10.5416 158.47 10.5416C157.741 10.5416 157.038 10.4201 156.361 10.1772C155.685 9.93427 155.095 9.59589 154.591 9.16207C153.498 8.22502 152.952 7.02768 152.952 5.57005C152.952 3.33154 154.826 1.66568 158.574 0.572455C159.841 0.190695 160.882 -0.000185858 161.697 -0.000185858C162.513 -0.000185858 163.12 0.0952543 163.519 0.286135C163.936 0.459662 164.274 0.693925 164.535 0.988922C165.055 1.57892 165.315 2.18626 165.315 2.81096C165.315 3.41831 165.237 3.9736 165.081 4.47683C164.942 4.98006 164.734 5.50064 164.456 6.03858C164.179 6.57651 163.84 7.11445 163.441 7.65238C163.042 8.19032 162.591 8.6762 162.088 9.11002ZM155.528 37.7681C154.21 38.4449 152.926 38.9828 151.676 39.3819C150.427 39.7984 149.195 40.0066 147.98 40.0066C146.783 40.0066 145.533 39.7203 144.232 39.1476C142.948 38.5577 141.802 37.7768 140.796 36.805C138.557 34.6359 137.438 32.2239 137.438 29.5689C137.438 27.1222 138.167 24.6407 139.625 22.1246C140.961 19.8514 142.661 17.9426 144.726 16.3982C146.791 14.8538 148.709 14.0816 150.479 14.0816C153.012 14.0816 154.366 14.793 154.539 16.216C154.591 16.6498 154.617 17.153 154.617 17.7257C154.617 18.2983 154.479 18.9577 154.201 19.7039C153.941 20.4327 153.594 21.1702 153.16 21.9164C152.743 22.6452 152.275 23.3653 151.754 24.0768C151.251 24.7709 150.765 25.4043 150.297 25.9769C149.394 27.0701 148.674 27.8597 148.136 28.3456C148.136 28.9355 148.579 29.5429 149.464 30.1676C150.297 30.7576 150.999 31.0526 151.572 31.0526C152.162 31.0526 152.847 30.9138 153.628 30.6361C154.427 30.3585 155.242 29.9854 156.075 29.5169C156.925 29.0483 157.784 28.5104 158.652 27.9031C159.537 27.2957 160.405 26.671 161.255 26.029L166.018 22.3068C167.91 20.9359 169.445 20.2505 170.625 20.2505C171.094 20.2505 171.45 20.424 171.693 20.7711C171.953 21.1008 172.083 21.4912 172.083 21.9424C172.083 22.3936 171.857 23.0183 171.406 23.8165C170.955 24.5974 170.33 25.465 169.532 26.4194C168.751 27.3738 167.832 28.3716 166.773 29.4127C165.715 30.4539 164.569 31.4777 163.337 32.4842C162.105 33.4906 160.821 34.4537 159.485 35.3734C158.166 36.2758 156.847 37.074 155.528 37.7681ZM193.975 25.2221C193.975 26.8012 194.434 27.5907 195.354 27.5907C197.61 27.5907 200.543 26.0637 204.152 23.0096L204.855 22.4109C206.26 21.4739 207.397 21.0053 208.265 21.0053C209.15 21.0053 209.705 21.1355 209.93 21.3958C210.173 21.6561 210.295 22.0725 210.295 22.6452C210.295 23.9293 209.644 25.2915 208.343 26.7317C206.399 29.0917 203.735 31.3302 200.352 33.4473C196.43 35.9114 192.916 37.1434 189.81 37.1434C187.641 37.1434 186.279 35.9374 185.723 33.5254C185.567 32.9007 185.454 32.302 185.385 31.7293C185.211 30.3411 185.029 29.5689 184.838 29.4127C184.647 29.2566 184.266 29.2739 183.693 29.4648C183.138 29.6383 182.47 29.942 181.689 30.3758C180.925 30.7923 180.075 31.3042 179.138 31.9115C174.175 35.2086 171.32 37.0913 170.574 37.5599C168.787 38.6704 167.581 39.2257 166.956 39.2257C166.332 39.2257 165.716 39.0956 165.108 38.8353C164.518 38.575 163.998 38.2453 163.546 37.8462C162.609 36.9612 162.141 36.0589 162.141 35.1392C162.141 29.8813 163.286 25.2828 165.577 21.3437C167.104 18.6887 168.978 16.8493 171.199 15.8255C172.327 15.2876 173.542 15.0186 174.843 15.0186C177.22 15.0186 178.409 15.7995 178.409 17.3613C178.409 18.3157 177.845 19.8774 176.717 22.0465L175.936 23.5822C175.381 24.6407 175.112 25.2394 175.129 25.3782C175.234 25.8988 175.468 26.1591 175.832 26.1591C176.231 26.1591 176.821 25.8641 177.602 25.2741L182.392 21.7081L184.786 20.0423C187.545 18.2376 189.576 17.3352 190.877 17.3352C191.571 17.3352 192.205 17.6129 192.777 18.1682C193.836 19.1746 194.365 20.0509 194.365 20.7971C194.365 21.04 194.339 21.335 194.287 21.6821C194.252 22.0291 194.209 22.4022 194.157 22.8013L194.053 24.0247C194.001 24.4412 193.975 24.8403 193.975 25.2221ZM235.596 26.107C235.596 27.8597 236.368 28.736 237.913 28.736C239.457 28.736 242.129 27.2523 245.93 24.285L248.22 22.4109C249.73 21.1615 251.17 20.5368 252.541 20.5368C253.044 20.5368 253.374 20.6756 253.53 20.9533C253.686 21.2136 253.765 21.5519 253.765 21.9684C253.765 22.3675 253.686 22.7927 253.53 23.2438C253.391 23.6777 253.192 24.1375 252.932 24.6234C252.359 25.7166 251.804 26.5669 251.266 27.1742C250.728 27.7816 250.094 28.415 249.366 29.0744C248.654 29.7164 247.804 30.4452 246.815 31.2608C245.826 32.059 244.732 32.8833 243.535 33.7336C242.338 34.5665 241.132 35.33 239.917 36.0242C237.175 37.6206 234.919 38.4188 233.149 38.4188C231.032 38.4188 229.375 37.6727 228.178 36.1803C227.05 34.7921 226.417 32.9354 226.278 30.6101C223.154 33.8204 219.849 36.2931 216.361 38.0284C214.226 39.0869 212.422 39.6162 210.947 39.6162C209.472 39.6162 208.179 39.4426 207.068 39.0956C205.958 38.7312 204.986 38.1932 204.153 37.4818C202.348 35.9721 201.446 33.8724 201.446 31.1827C201.446 27.3304 202.825 23.6169 205.585 20.0423C206.452 18.9317 207.424 17.9599 208.5 17.127C210.825 15.6694 213.289 14.9405 215.892 14.9405C217.037 14.9405 217.853 15.2963 218.339 16.0077C218.53 16.2854 218.625 16.6498 218.625 17.101C218.625 17.5348 218.495 18.0467 218.235 18.6367C217.992 19.2093 217.688 19.8167 217.324 20.4587C216.959 21.0834 216.552 21.7342 216.1 22.4109C215.667 23.0877 215.267 23.7471 214.903 24.3891C214.035 25.9162 213.602 27.0181 213.602 27.6948C213.602 28.3542 213.792 28.8401 214.174 29.1525C214.556 29.4648 215.024 29.621 215.58 29.621C216.812 29.621 217.862 29.326 218.729 28.736C219.597 28.1286 220.456 27.4345 221.306 26.6537L223.753 24.259L226.122 21.8122C227.805 20.0943 229.08 19.0271 229.948 18.6107C230.833 18.1768 231.475 18.012 231.874 18.1161C232.273 18.2202 232.681 18.4111 233.097 18.6887C233.514 18.949 233.922 19.2701 234.321 19.6518C235.258 20.5542 235.778 21.3697 235.882 22.0986C235.917 22.5671 235.874 23.2699 235.752 24.2069C235.648 25.1266 235.596 25.76 235.596 26.107ZM278.832 26.107C278.832 27.8597 279.604 28.736 281.148 28.736C282.693 28.736 285.365 27.2523 289.165 24.285L291.456 22.4109C292.965 21.1615 294.406 20.5368 295.777 20.5368C296.28 20.5368 296.61 20.6756 296.766 20.9533C296.922 21.2136 297 21.5519 297 21.9684C297 22.3675 296.922 22.7927 296.766 23.2438C296.627 23.6777 296.427 24.1375 296.167 24.6234C295.594 25.7166 295.039 26.5669 294.501 27.1742C293.963 27.7816 293.33 28.415 292.601 29.0744C291.89 29.7164 291.039 30.4452 290.05 31.2608C289.061 32.059 287.968 32.8833 286.771 33.7336C285.573 34.5665 284.367 35.33 283.152 36.0242C280.411 37.6206 278.155 38.4188 276.385 38.4188C274.268 38.4188 272.611 37.6727 271.413 36.1803C270.285 34.7921 269.652 32.9354 269.513 30.6101C266.39 33.8204 263.084 36.2931 259.596 38.0284C257.462 39.0869 255.657 39.6162 254.182 39.6162C252.707 39.6162 251.414 39.4426 250.304 39.0956C249.193 38.7312 248.221 38.1932 247.388 37.4818C245.584 35.9721 244.681 33.8724 244.681 31.1827C244.681 27.3304 246.061 23.6169 248.82 20.0423C249.688 18.9317 250.659 17.9599 251.735 17.127C254.061 15.6694 256.525 14.9405 259.128 14.9405C260.273 14.9405 261.088 15.2963 261.574 16.0077C261.765 16.2854 261.861 16.6498 261.861 17.101C261.861 17.5348 261.73 18.0467 261.47 18.6367C261.227 19.2093 260.924 19.8167 260.559 20.4587C260.195 21.0834 259.787 21.7342 259.336 22.4109C258.902 23.0877 258.503 23.7471 258.138 24.3891C257.271 25.9162 256.837 27.0181 256.837 27.6948C256.837 28.3542 257.028 28.8401 257.41 29.1525C257.791 29.4648 258.26 29.621 258.815 29.621C260.047 29.621 261.097 29.326 261.965 28.736C262.832 28.1286 263.691 27.4345 264.542 26.6537L266.988 24.259L269.357 21.8122C271.04 20.0943 272.316 19.0271 273.183 18.6107C274.068 18.1768 274.71 18.012 275.109 18.1161C275.509 18.2202 275.916 18.4111 276.333 18.6887C276.749 18.949 277.157 19.2701 277.556 19.6518C278.493 20.5542 279.014 21.3697 279.118 22.0986C279.153 22.5671 279.109 23.2699 278.988 24.2069C278.884 25.1266 278.832 25.76 278.832 26.107ZM339.689 24.9357C339.689 27.4866 340.487 28.762 342.083 28.762C343.194 28.762 345.112 27.7903 347.836 25.8468C350.3 24.0247 351.766 22.8794 352.235 22.4109C353.311 21.5086 354.439 21.0574 355.619 21.0574C356.122 21.0574 356.547 21.2309 356.894 21.578C357.258 21.9077 357.441 22.4109 357.441 23.0877C357.441 23.7644 357.276 24.3804 356.946 24.9357C356.616 25.491 356.191 26.0637 355.671 26.6537C355.167 27.2437 354.534 27.9031 353.771 28.6319C353.024 29.3607 352.165 30.1329 351.194 30.9485C350.222 31.7467 349.155 32.5449 347.992 33.3431C346.847 34.1414 345.658 34.8615 344.426 35.5036C341.65 36.9265 339.142 37.638 336.904 37.638C334.335 37.638 332.591 36.4753 331.672 34.1501C331.134 32.8139 330.865 31.2088 330.865 29.3347L323.29 34.4624C318.102 38.1065 315.013 40.0413 314.024 40.2669C313.521 40.3884 313.009 40.4491 312.488 40.4491C311.985 40.4491 311.508 40.397 311.057 40.2929C310.606 40.2062 310.206 40.05 309.859 39.8244C309.061 39.3559 308.662 38.6618 308.662 37.7421C308.662 37.3777 308.905 36.4927 309.391 35.0871L311.629 28.9442C312.323 26.966 312.671 25.7773 312.671 25.3782C312.671 25.2394 312.584 25.17 312.41 25.17C312.237 25.17 311.916 25.3522 311.447 25.7166C310.979 26.081 310.415 26.5495 309.755 27.1222L303.56 32.5362L300.307 35.2433C296.975 37.8982 294.259 39.2257 292.16 39.2257C291.17 39.2257 290.173 38.7832 289.166 37.8982C288.073 36.9612 287.526 35.8333 287.526 34.5145C287.526 33.1957 287.657 31.7554 287.917 30.1936C288.16 28.6319 288.515 27.1309 288.984 25.6906C289.453 24.2329 290.034 22.8708 290.728 21.604C291.422 20.3199 292.212 19.2093 293.097 18.2723C295.005 16.2246 297.253 15.2008 299.838 15.2008C302.441 15.2008 303.743 15.9644 303.743 17.4914C303.743 18.1508 303.387 19.1573 302.675 20.5108C301.166 23.4955 300.411 25.1093 300.411 25.3522C300.411 25.5778 300.48 25.76 300.619 25.8988C300.775 26.0203 300.94 26.081 301.114 26.081C301.478 26.081 301.999 25.786 302.675 25.196C307.135 21.2917 309.937 18.8709 311.083 17.9339C312.245 16.9968 313.365 16.1726 314.441 15.4611C316.905 13.8473 318.865 13.0404 320.323 13.0404C321.52 13.0404 322.492 13.2313 323.238 13.6131C324.54 14.2898 325.191 15.0533 325.191 15.9036C325.191 16.7539 325.069 17.717 324.826 18.7929C324.601 19.8687 324.349 20.9099 324.071 21.9164L323.29 24.5713C323.047 25.3348 322.926 25.9248 322.926 26.3413C322.926 26.7404 323.1 26.94 323.447 26.94C324.28 26.94 325.937 25.76 328.418 23.4L330.943 21.0314C333.841 18.4284 336.036 17.127 337.528 17.127C338.24 17.127 338.873 17.4046 339.428 17.9599C340.4 18.9317 340.886 19.782 340.886 20.5108C340.886 20.9099 340.747 21.4478 340.47 22.1246C339.949 23.3913 339.689 24.3284 339.689 24.9357Z" fill="url(#paint0_linear_2032_327)"/>
<path d="M13.2229 26.966C13.2229 29.8639 16.1122 31.3129 21.8906 31.3129C25.795 31.3129 30.6972 29.8379 36.5971 26.8879L39.2521 25.4823C43.2779 23.4347 45.5511 22.9922 46.0717 24.1549C46.2105 24.4672 46.2799 24.8316 46.2799 25.2481C46.2799 25.6472 46.1064 26.0637 45.7594 26.4975C45.4297 26.914 44.9785 27.3825 44.4058 27.9031C43.8332 28.4063 43.1651 28.9442 42.4016 29.5169C41.6381 30.0722 40.8312 30.6274 39.9809 31.1827L37.43 32.7705C36.5624 33.2911 35.6254 33.803 34.6189 34.3062L30.8186 36.1803C24.8666 38.9568 19.253 40.345 13.9778 40.345C9.36194 40.345 5.8133 39.434 3.33186 37.6119C1.1107 35.9981 0.0001279 33.9158 0.0001279 31.3649C0.0001279 27.8423 1.58791 24.2937 4.76346 20.719C7.5052 17.6476 11.2621 14.7323 16.0341 11.9732C20.1987 9.56119 24.6411 7.58297 29.361 6.03858C33.8207 4.56359 37.4387 3.8261 40.2152 3.8261C40.8052 3.8261 41.2997 4.01698 41.6988 4.39874C42.4276 5.0755 42.792 5.74358 42.792 6.40298C42.792 8.97119 41.7248 11.0448 39.5905 12.6239C37.7684 13.9601 35.6427 14.6282 33.2133 14.6282C30.7839 14.6282 28.9619 14.3853 27.7472 13.8994C23.2181 15.652 19.5393 18.0033 16.7108 20.9533C15.5309 22.1853 14.6545 23.3393 14.0819 24.4152C13.5093 25.491 13.2229 26.3413 13.2229 26.966ZM68.4318 23.1658C68.4318 24.1028 69.23 24.5713 70.8265 24.5713C72.0065 24.5713 73.5509 23.9987 75.4597 22.8534L77.542 21.7081C78.184 21.3437 78.7393 21.1615 79.2079 21.1615C79.6937 21.1615 80.0755 21.309 80.3531 21.604C80.6308 21.899 80.7696 22.3068 80.7696 22.8274C80.7696 23.348 80.5961 23.9553 80.249 24.6494C79.902 25.3262 79.4248 26.0463 78.8174 26.8098C78.2101 27.556 77.4986 28.3022 76.683 29.0483C75.8674 29.7772 74.9911 30.4366 74.0541 31.0266C71.9718 32.328 70.0369 32.9787 68.2496 32.9787C66.3581 32.9787 64.8484 32.6577 63.7205 32.0157C63.3735 31.8074 63.0351 31.5905 62.7054 31.3649C60.8486 33.482 58.159 35.4255 54.6363 37.1955C50.8881 39.0696 47.6172 40.0066 44.8234 40.0066C41.8907 40.0066 39.5741 38.8527 37.8736 36.5447C36.5027 34.6706 35.8173 32.7705 35.8173 30.8444C35.8173 28.0679 37.3009 25.4216 40.2683 22.9055C42.4547 21.0661 44.5631 19.6692 46.5933 18.7148C48.641 17.7604 50.489 17.0229 52.1375 16.5023C55.6255 15.4091 58.7663 14.8625 61.5601 14.8625C62.8095 14.8625 63.9201 15.1054 64.8918 15.5913C65.8809 16.0598 66.6098 16.537 67.0783 17.0229C68.1889 18.1161 68.7441 19.513 68.7441 21.2136C68.7441 21.7168 68.6921 22.1072 68.588 22.3849C68.4838 22.6625 68.4318 22.9228 68.4318 23.1658ZM47.1399 28.0853L47.1139 28.1633V28.1894C47.1139 28.9355 47.2788 29.4214 47.6085 29.647C48.4067 30.1329 49.2483 30.263 50.1333 30.0374C51.0183 29.7945 51.8599 29.4995 52.6581 29.1525C54.6363 28.3022 56.4237 27.2263 58.0201 25.9248C57.7425 25.3696 57.6037 24.7969 57.6037 24.2069C57.6037 22.9575 58.1503 21.7081 59.2435 20.4587C57.8553 20.4587 55.9812 21.1095 53.6212 22.4109C51.0183 23.8512 49.0661 25.3348 47.7646 26.8619C47.3482 27.3825 47.1399 27.7903 47.1399 28.0853ZM104.145 25.2221C104.145 26.8012 104.605 27.5907 105.524 27.5907C107.78 27.5907 110.713 26.0637 114.322 23.0096L115.025 22.4109C116.431 21.4739 117.567 21.0053 118.435 21.0053C119.32 21.0053 119.875 21.1355 120.101 21.3958C120.344 21.6561 120.465 22.0725 120.465 22.6452C120.465 23.9293 119.814 25.2915 118.513 26.7317C116.569 29.0917 113.906 31.3302 110.522 33.4473C106.6 35.9114 103.086 37.1434 99.9802 37.1434C97.8111 37.1434 96.4489 35.9374 95.8936 33.5254C95.7374 32.9007 95.6246 32.302 95.5552 31.7293C95.3817 30.3411 95.1995 29.5689 95.0086 29.4127C94.8177 29.2566 94.436 29.2739 93.8633 29.4648C93.308 29.6383 92.6399 29.942 91.8591 30.3758C91.0955 30.7923 90.2453 31.3042 89.3082 31.9115C84.3453 35.2086 81.4908 37.0913 80.7446 37.5599C78.9573 38.6704 77.7513 39.2257 77.1266 39.2257C76.5019 39.2257 75.8858 39.0956 75.2785 38.8353C74.6885 38.575 74.1679 38.2453 73.7168 37.8462C72.7797 36.9612 72.3112 36.0589 72.3112 35.1392C72.3112 29.8813 73.4565 25.2828 75.747 21.3437C77.2741 18.6887 79.1482 16.8493 81.3693 15.8255C82.4973 15.2876 83.7119 15.0186 85.0134 15.0186C87.3907 15.0186 88.5794 15.7995 88.5794 17.3613C88.5794 18.3157 88.0154 19.8774 86.8875 22.0465L86.1066 23.5822C85.5513 24.6407 85.2824 25.2394 85.2997 25.3782C85.4038 25.8988 85.6381 26.1591 86.0025 26.1591C86.4016 26.1591 86.9916 25.8641 87.7725 25.2741L92.5619 21.7081L94.9565 20.0423C97.7156 18.2376 99.7459 17.3352 101.047 17.3352C101.741 17.3352 102.375 17.6129 102.947 18.1682C104.006 19.1746 104.535 20.0509 104.535 20.7971C104.535 21.04 104.509 21.335 104.457 21.6821C104.422 22.0291 104.379 22.4022 104.327 22.8013L104.223 24.0247C104.171 24.4412 104.145 24.8403 104.145 25.2221ZM142.747 21.3697C144.448 21.3697 145.298 21.9597 145.298 23.1397C145.298 24.2677 144.5 25.7253 142.903 27.5126L141.628 28.8401C140.083 30.4192 138.279 31.9723 136.214 33.4993C134.166 35.0264 132.361 36.2324 130.8 37.1174C127.173 39.1303 123.885 40.1368 120.935 40.1368C118.158 40.1368 115.894 39.3038 114.141 37.638C112.631 36.1977 111.877 34.6793 111.877 33.0829C111.877 31.4864 112.033 29.8986 112.345 28.3195C112.657 26.7404 113.065 25.196 113.568 23.6863C114.575 20.6149 115.677 18.0033 116.874 15.8516C117.186 15.2616 117.343 14.8798 117.343 14.7063H113.985C112.718 14.7063 111.738 14.4113 111.044 13.8213C110.349 13.2313 110.002 12.5632 110.002 11.817C110.002 11.0709 110.141 10.5243 110.419 10.1772C110.697 9.83015 111.044 9.57854 111.46 9.42236C112.05 9.17943 112.918 9.05796 114.063 9.05796L120.44 9.08399C120.579 9.03193 120.857 8.65884 121.273 7.96473L122.861 5.23167C123.538 4.01698 124.214 3.12331 124.891 2.55067C125.585 1.97803 126.392 1.69171 127.312 1.69171C128.249 1.69171 129.03 1.77847 129.654 1.952C130.296 2.12553 130.834 2.34244 131.268 2.60273C132.119 3.15802 132.544 3.76536 132.544 4.42477C132.544 4.70241 132.448 5.0755 132.257 5.54402L130.8 9.08399L143.164 9.05796C144.239 9.05796 144.777 9.61325 144.777 10.7238C144.777 13.3614 142.426 14.6803 137.723 14.6803L128.197 14.7063C127.989 14.8104 127.633 15.3136 127.13 16.216L125.958 18.3764C125.663 18.9143 125.455 19.3221 125.334 19.5998L124.761 20.8752C123.598 23.4955 123.017 25.3869 123.017 26.5495C123.017 27.7122 123.321 28.6839 123.928 29.4648C124.553 30.2457 125.377 30.6361 126.401 30.6361C127.425 30.6361 128.422 30.4366 129.394 30.0374C130.383 29.6383 131.346 29.1525 132.283 28.5798C133.984 27.5213 135.32 26.5409 136.292 25.6385C137.264 24.7362 138.071 24.0507 138.713 23.5822C138.713 23.5822 139.32 23.1571 140.535 22.3068C141.472 21.6821 142.209 21.3697 142.747 21.3697ZM162.088 9.11002C161.585 9.52648 161.038 9.87354 160.448 10.1512C159.858 10.4115 159.199 10.5416 158.47 10.5416C157.741 10.5416 157.038 10.4201 156.361 10.1772C155.685 9.93427 155.095 9.59589 154.591 9.16207C153.498 8.22502 152.952 7.02768 152.952 5.57005C152.952 3.33154 154.826 1.66568 158.574 0.572455C159.841 0.190695 160.882 -0.000185858 161.697 -0.000185858C162.513 -0.000185858 163.12 0.0952543 163.519 0.286135C163.936 0.459662 164.274 0.693925 164.535 0.988922C165.055 1.57892 165.315 2.18626 165.315 2.81096C165.315 3.41831 165.237 3.9736 165.081 4.47683C164.942 4.98006 164.734 5.50064 164.456 6.03858C164.179 6.57651 163.84 7.11445 163.441 7.65238C163.042 8.19032 162.591 8.6762 162.088 9.11002ZM155.528 37.7681C154.21 38.4449 152.926 38.9828 151.676 39.3819C150.427 39.7984 149.195 40.0066 147.98 40.0066C146.783 40.0066 145.533 39.7203 144.232 39.1476C142.948 38.5577 141.802 37.7768 140.796 36.805C138.557 34.6359 137.438 32.2239 137.438 29.5689C137.438 27.1222 138.167 24.6407 139.625 22.1246C140.961 19.8514 142.661 17.9426 144.726 16.3982C146.791 14.8538 148.709 14.0816 150.479 14.0816C153.012 14.0816 154.366 14.793 154.539 16.216C154.591 16.6498 154.617 17.153 154.617 17.7257C154.617 18.2983 154.479 18.9577 154.201 19.7039C153.941 20.4327 153.594 21.1702 153.16 21.9164C152.743 22.6452 152.275 23.3653 151.754 24.0768C151.251 24.7709 150.765 25.4043 150.297 25.9769C149.394 27.0701 148.674 27.8597 148.136 28.3456C148.136 28.9355 148.579 29.5429 149.464 30.1676C150.297 30.7576 150.999 31.0526 151.572 31.0526C152.162 31.0526 152.847 30.9138 153.628 30.6361C154.427 30.3585 155.242 29.9854 156.075 29.5169C156.925 29.0483 157.784 28.5104 158.652 27.9031C159.537 27.2957 160.405 26.671 161.255 26.029L166.018 22.3068C167.91 20.9359 169.445 20.2505 170.625 20.2505C171.094 20.2505 171.45 20.424 171.693 20.7711C171.953 21.1008 172.083 21.4912 172.083 21.9424C172.083 22.3936 171.857 23.0183 171.406 23.8165C170.955 24.5974 170.33 25.465 169.532 26.4194C168.751 27.3738 167.832 28.3716 166.773 29.4127C165.715 30.4539 164.569 31.4777 163.337 32.4842C162.105 33.4906 160.821 34.4537 159.485 35.3734C158.166 36.2758 156.847 37.074 155.528 37.7681ZM193.975 25.2221C193.975 26.8012 194.434 27.5907 195.354 27.5907C197.61 27.5907 200.543 26.0637 204.152 23.0096L204.855 22.4109C206.26 21.4739 207.397 21.0053 208.265 21.0053C209.15 21.0053 209.705 21.1355 209.93 21.3958C210.173 21.6561 210.295 22.0725 210.295 22.6452C210.295 23.9293 209.644 25.2915 208.343 26.7317C206.399 29.0917 203.735 31.3302 200.352 33.4473C196.43 35.9114 192.916 37.1434 189.81 37.1434C187.641 37.1434 186.279 35.9374 185.723 33.5254C185.567 32.9007 185.454 32.302 185.385 31.7293C185.211 30.3411 185.029 29.5689 184.838 29.4127C184.647 29.2566 184.266 29.2739 183.693 29.4648C183.138 29.6383 182.47 29.942 181.689 30.3758C180.925 30.7923 180.075 31.3042 179.138 31.9115C174.175 35.2086 171.32 37.0913 170.574 37.5599C168.787 38.6704 167.581 39.2257 166.956 39.2257C166.332 39.2257 165.716 39.0956 165.108 38.8353C164.518 38.575 163.998 38.2453 163.546 37.8462C162.609 36.9612 162.141 36.0589 162.141 35.1392C162.141 29.8813 163.286 25.2828 165.577 21.3437C167.104 18.6887 168.978 16.8493 171.199 15.8255C172.327 15.2876 173.542 15.0186 174.843 15.0186C177.22 15.0186 178.409 15.7995 178.409 17.3613C178.409 18.3157 177.845 19.8774 176.717 22.0465L175.936 23.5822C175.381 24.6407 175.112 25.2394 175.129 25.3782C175.234 25.8988 175.468 26.1591 175.832 26.1591C176.231 26.1591 176.821 25.8641 177.602 25.2741L182.392 21.7081L184.786 20.0423C187.545 18.2376 189.576 17.3352 190.877 17.3352C191.571 17.3352 192.205 17.6129 192.777 18.1682C193.836 19.1746 194.365 20.0509 194.365 20.7971C194.365 21.04 194.339 21.335 194.287 21.6821C194.252 22.0291 194.209 22.4022 194.157 22.8013L194.053 24.0247C194.001 24.4412 193.975 24.8403 193.975 25.2221ZM235.596 26.107C235.596 27.8597 236.368 28.736 237.913 28.736C239.457 28.736 242.129 27.2523 245.93 24.285L248.22 22.4109C249.73 21.1615 251.17 20.5368 252.541 20.5368C253.044 20.5368 253.374 20.6756 253.53 20.9533C253.686 21.2136 253.765 21.5519 253.765 21.9684C253.765 22.3675 253.686 22.7927 253.53 23.2438C253.391 23.6777 253.192 24.1375 252.932 24.6234C252.359 25.7166 251.804 26.5669 251.266 27.1742C250.728 27.7816 250.094 28.415 249.366 29.0744C248.654 29.7164 247.804 30.4452 246.815 31.2608C245.826 32.059 244.732 32.8833 243.535 33.7336C242.338 34.5665 241.132 35.33 239.917 36.0242C237.175 37.6206 234.919 38.4188 233.149 38.4188C231.032 38.4188 229.375 37.6727 228.178 36.1803C227.05 34.7921 226.417 32.9354 226.278 30.6101C223.154 33.8204 219.849 36.2931 216.361 38.0284C214.226 39.0869 212.422 39.6162 210.947 39.6162C209.472 39.6162 208.179 39.4426 207.068 39.0956C205.958 38.7312 204.986 38.1932 204.153 37.4818C202.348 35.9721 201.446 33.8724 201.446 31.1827C201.446 27.3304 202.825 23.6169 205.585 20.0423C206.452 18.9317 207.424 17.9599 208.5 17.127C210.825 15.6694 213.289 14.9405 215.892 14.9405C217.037 14.9405 217.853 15.2963 218.339 16.0077C218.53 16.2854 218.625 16.6498 218.625 17.101C218.625 17.5348 218.495 18.0467 218.235 18.6367C217.992 19.2093 217.688 19.8167 217.324 20.4587C216.959 21.0834 216.552 21.7342 216.1 22.4109C215.667 23.0877 215.267 23.7471 214.903 24.3891C214.035 25.9162 213.602 27.0181 213.602 27.6948C213.602 28.3542 213.792 28.8401 214.174 29.1525C214.556 29.4648 215.024 29.621 215.58 29.621C216.812 29.621 217.862 29.326 218.729 28.736C219.597 28.1286 220.456 27.4345 221.306 26.6537L223.753 24.259L226.122 21.8122C227.805 20.0943 229.08 19.0271 229.948 18.6107C230.833 18.1768 231.475 18.012 231.874 18.1161C232.273 18.2202 232.681 18.4111 233.097 18.6887C233.514 18.949 233.922 19.2701 234.321 19.6518C235.258 20.5542 235.778 21.3697 235.882 22.0986C235.917 22.5671 235.874 23.2699 235.752 24.2069C235.648 25.1266 235.596 25.76 235.596 26.107ZM278.832 26.107C278.832 27.8597 279.604 28.736 281.148 28.736C282.693 28.736 285.365 27.2523 289.165 24.285L291.456 22.4109C292.965 21.1615 294.406 20.5368 295.777 20.5368C296.28 20.5368 296.61 20.6756 296.766 20.9533C296.922 21.2136 297 21.5519 297 21.9684C297 22.3675 296.922 22.7927 296.766 23.2438C296.627 23.6777 296.427 24.1375 296.167 24.6234C295.594 25.7166 295.039 26.5669 294.501 27.1742C293.963 27.7816 293.33 28.415 292.601 29.0744C291.89 29.7164 291.039 30.4452 290.05 31.2608C289.061 32.059 287.968 32.8833 286.771 33.7336C285.573 34.5665 284.367 35.33 283.152 36.0242C280.411 37.6206 278.155 38.4188 276.385 38.4188C274.268 38.4188 272.611 37.6727 271.413 36.1803C270.285 34.7921 269.652 32.9354 269.513 30.6101C266.39 33.8204 263.084 36.2931 259.596 38.0284C257.462 39.0869 255.657 39.6162 254.182 39.6162C252.707 39.6162 251.414 39.4426 250.304 39.0956C249.193 38.7312 248.221 38.1932 247.388 37.4818C245.584 35.9721 244.681 33.8724 244.681 31.1827C244.681 27.3304 246.061 23.6169 248.82 20.0423C249.688 18.9317 250.659 17.9599 251.735 17.127C254.061 15.6694 256.525 14.9405 259.128 14.9405C260.273 14.9405 261.088 15.2963 261.574 16.0077C261.765 16.2854 261.861 16.6498 261.861 17.101C261.861 17.5348 261.73 18.0467 261.47 18.6367C261.227 19.2093 260.924 19.8167 260.559 20.4587C260.195 21.0834 259.787 21.7342 259.336 22.4109C258.902 23.0877 258.503 23.7471 258.138 24.3891C257.271 25.9162 256.837 27.0181 256.837 27.6948C256.837 28.3542 257.028 28.8401 257.41 29.1525C257.791 29.4648 258.26 29.621 258.815 29.621C260.047 29.621 261.097 29.326 261.965 28.736C262.832 28.1286 263.691 27.4345 264.542 26.6537L266.988 24.259L269.357 21.8122C271.04 20.0943 272.316 19.0271 273.183 18.6107C274.068 18.1768 274.71 18.012 275.109 18.1161C275.509 18.2202 275.916 18.4111 276.333 18.6887C276.749 18.949 277.157 19.2701 277.556 19.6518C278.493 20.5542 279.014 21.3697 279.118 22.0986C279.153 22.5671 279.109 23.2699 278.988 24.2069C278.884 25.1266 278.832 25.76 278.832 26.107ZM339.689 24.9357C339.689 27.4866 340.487 28.762 342.083 28.762C343.194 28.762 345.112 27.7903 347.836 25.8468C350.3 24.0247 351.766 22.8794 352.235 22.4109C353.311 21.5086 354.439 21.0574 355.619 21.0574C356.122 21.0574 356.547 21.2309 356.894 21.578C357.258 21.9077 357.441 22.4109 357.441 23.0877C357.441 23.7644 357.276 24.3804 356.946 24.9357C356.616 25.491 356.191 26.0637 355.671 26.6537C355.167 27.2437 354.534 27.9031 353.771 28.6319C353.024 29.3607 352.165 30.1329 351.194 30.9485C350.222 31.7467 349.155 32.5449 347.992 33.3431C346.847 34.1414 345.658 34.8615 344.426 35.5036C341.65 36.9265 339.142 37.638 336.904 37.638C334.335 37.638 332.591 36.4753 331.672 34.1501C331.134 32.8139 330.865 31.2088 330.865 29.3347L323.29 34.4624C318.102 38.1065 315.013 40.0413 314.024 40.2669C313.521 40.3884 313.009 40.4491 312.488 40.4491C311.985 40.4491 311.508 40.397 311.057 40.2929C310.606 40.2062 310.206 40.05 309.859 39.8244C309.061 39.3559 308.662 38.6618 308.662 37.7421C308.662 37.3777 308.905 36.4927 309.391 35.0871L311.629 28.9442C312.323 26.966 312.671 25.7773 312.671 25.3782C312.671 25.2394 312.584 25.17 312.41 25.17C312.237 25.17 311.916 25.3522 311.447 25.7166C310.979 26.081 310.415 26.5495 309.755 27.1222L303.56 32.5362L300.307 35.2433C296.975 37.8982 294.259 39.2257 292.16 39.2257C291.17 39.2257 290.173 38.7832 289.166 37.8982C288.073 36.9612 287.526 35.8333 287.526 34.5145C287.526 33.1957 287.657 31.7554 287.917 30.1936C288.16 28.6319 288.515 27.1309 288.984 25.6906C289.453 24.2329 290.034 22.8708 290.728 21.604C291.422 20.3199 292.212 19.2093 293.097 18.2723C295.005 16.2246 297.253 15.2008 299.838 15.2008C302.441 15.2008 303.743 15.9644 303.743 17.4914C303.743 18.1508 303.387 19.1573 302.675 20.5108C301.166 23.4955 300.411 25.1093 300.411 25.3522C300.411 25.5778 300.48 25.76 300.619 25.8988C300.775 26.0203 300.94 26.081 301.114 26.081C301.478 26.081 301.999 25.786 302.675 25.196C307.135 21.2917 309.937 18.8709 311.083 17.9339C312.245 16.9968 313.365 16.1726 314.441 15.4611C316.905 13.8473 318.865 13.0404 320.323 13.0404C321.52 13.0404 322.492 13.2313 323.238 13.6131C324.54 14.2898 325.191 15.0533 325.191 15.9036C325.191 16.7539 325.069 17.717 324.826 18.7929C324.601 19.8687 324.349 20.9099 324.071 21.9164L323.29 24.5713C323.047 25.3348 322.926 25.9248 322.926 26.3413C322.926 26.7404 323.1 26.94 323.447 26.94C324.28 26.94 325.937 25.76 328.418 23.4L330.943 21.0314C333.841 18.4284 336.036 17.127 337.528 17.127C338.24 17.127 338.873 17.4046 339.428 17.9599C340.4 18.9317 340.886 19.782 340.886 20.5108C340.886 20.9099 340.747 21.4478 340.47 22.1246C339.949 23.3913 339.689 24.3284 339.689 24.9357Z" fill="#142025" fill-opacity="0.65"/>
<defs>
<linearGradient id="paint0_linear_2032_327" x1="137.586" y1="-157.55" x2="268.427" y2="819.18" gradientUnits="userSpaceOnUse">
<stop stop-color="#24B5F8"/>
<stop offset="1" stop-color="#5521FE"/>
</linearGradient>
</defs>
</svg>
